<svg xmlns="http://www.w3.org/2000/svg" width="20" height="24" viewBox="0 0 20 24">
    <path fill="currentColor" fill-rule="evenodd" d="M17.692 24H2.308C1.035 24 0 22.99 0 21.75V10.5c0-1.24 1.035-2.25 2.308-2.25h1.538V6c0-3.308 2.76-6 6.154-6 3.393 0 6.154 2.692 6.154 6v2.25h1.538C18.965 8.25 20 9.26 20 10.5v11.25c0 1.24-1.035 2.25-2.308 2.25zM14.615 6c0-2.481-2.07-4.5-4.615-4.5-2.545 0-4.615 2.019-4.615 4.5v2.25h9.23V6zm3.847 4.5a.76.76 0 0 0-.77-.75H2.308a.76.76 0 0 0-.77.75v11.25c0 .413.346.75.77.75h15.384c.424 0 .77-.337.77-.75V10.5zm-7.693 5.041V18a.76.76 0 0 1-.769.75.76.76 0 0 1-.77-.75v-2.459a1.49 1.49 0 0 1-.768-1.291c0-.826.69-1.5 1.538-1.5.848 0 1.538.674 1.538 1.5a1.49 1.49 0 0 1-.769 1.291z"/>
</svg>
