<svg xmlns="http://www.w3.org/2000/svg" viewBox="0 0 18 16" fill="#EF4747">
    <path fill-rule="evenodd" clip-rule="evenodd"
          d="M9.6869.8947A.794.794 0 0 0 8.9999.5a.794.794 0 0 0-.6868.3947L.8563 14.3157a.7862.7862 0 0 0 0 .7896.7937.7937 0 0 0 .6868.3947h14.9137a.7938.7938 0 0 0 .687-.3947.7863.7863 0 0 0 0-.7895L9.6867.8947zm5.3962 13.0264H2.9169l6.083-11.0527 6.0832 11.0527zM8.175 10.1V6.35c.0066-1.0009 1.6365-.9984 1.65 0v3.75c.0066.9991-1.6634 1.0016-1.65 0zm0 2.25c0-.4143.3693-.75.825-.75.4556 0 .825.3357.825.75 0 .4141-.3694.75-.825.75-.4557 0-.825-.3359-.825-.75z" />
</svg>
