<svg xmlns="http://www.w3.org/2000/svg" width="24" height="24" fill="#424242">
    <path fill-rule="evenodd"
          d="M2.4 1.2A1.2 1.2 0 013.6 0h16.8a1.2 1.2 0 011.2 1.2v21.6a1.2 1.2 0 01-1.2 1.2H3.6a1.2 1.2 0 01-1.2-1.2V1.2zm2.4 1.2v19.2h14.4V2.4H4.8zM6 7.2A1.2 1.2 0 017.2 6h6a1.2 1.2 0 110 2.4h-6A1.2 1.2 0 016 7.2zM6 12a1.2 1.2 0 011.2-1.2h9.6a1.2 1.2 0 110 2.4H7.2A1.2 1.2 0 016 12zm0 4.8a1.2 1.2 0 011.2-1.2h9.6a1.2 1.2 0 110 2.4H7.2A1.2 1.2 0 016 16.8z"
          clip-rule="evenodd"/>
</svg>
