<svg viewBox="0 0 20 20" fill="#B3DD87" xmlns="http://www.w3.org/2000/svg">
    <path d="m10.2884 14.7807 4.8659-7.0365c.935-1.4274-.881-2.6882-1.82-1.2633l-4.1604 6.0098-2.3397-2.0098c-1.2518-1.0648-2.7041.6124-1.4578 1.6722l3.2731 2.8309c.4878.4291 1.2685.335 1.6389-.2033Z"/>
    <path fill-rule="evenodd" clip-rule="evenodd"
          d="M10 0C4.4771 0 0 4.4771 0 10c0 5.5228 4.4771 10 10 10 5.5228 0 10-4.4772 10-10 0-5.5229-4.4772-10-10-10ZM2 10c0-4.4183 3.5817-8 8-8s8 3.5817 8 8-3.5817 8-8 8-8-3.5817-8-8Z"/>
</svg>
