<svg width="30" height="30" viewBox="0 0 30 30" fill="#EF4747" xmlns="http://www.w3.org/2000/svg">
<path d="M19.2426 12.8787C19.8284 12.2929 19.8284 11.3431 19.2426 10.7574C18.6569 10.1716 17.7071 10.1716 17.1213 10.7574L15 12.8787L12.8787 10.7573C12.2929 10.1715 11.3432 10.1715 10.7574 10.7573C10.1716 11.3431 10.1716 12.2929 10.7574 12.8787L12.8787 15L10.7574 17.1213C10.1716 17.7071 10.1716 18.6569 10.7574 19.2426C11.3431 19.8284 12.2929 19.8284 12.8787 19.2426L15 17.1213L17.1213 19.2426C17.7071 19.8284 18.6569 19.8284 19.2427 19.2426C19.8285 18.6568 19.8285 17.7071 19.2427 17.1213L17.1213 15L19.2426 12.8787Z"/>
<path fill-rule="evenodd" clip-rule="evenodd" d="M25.6066 4.3934C19.7487 -1.46447 10.2513 -1.46447 4.3934 4.3934C-1.46447 10.2513 -1.46447 19.7487 4.3934 25.6066C10.2513 31.4645 19.7487 31.4645 25.6066 25.6066C31.4645 19.7487 31.4645 10.2513 25.6066 4.3934ZM6.51472 6.51472C11.201 1.82843 18.799 1.82843 23.4853 6.51472C28.1716 11.201 28.1716 18.799 23.4853 23.4853C18.799 28.1716 11.201 28.1716 6.51472 23.4853C1.82843 18.799 1.82843 11.201 6.51472 6.51472Z"/>
</svg>
