<svg xmlns="http://www.w3.org/2000/svg" viewBox="0 0 24 24" fill="#55B6E2">
    <path fill-rule="evenodd" clip-rule="evenodd"
          d="M2 6c0-2.2091 1.7909-4 4-4h2.5c.5523 0 1-.4477 1-1s-.4477-1-1-1H6C2.6863 0 0 2.6863 0 6v12c0 3.3137 2.6863 6 6 6h12c3.3137 0 6-2.6863 6-6v-2.5c0-.5523-.4477-1-1-1s-1 .4477-1 1V18c0 2.2091-1.7909 4-4 4H6c-2.2091 0-4-1.7909-4-4V6Zm12.0212-6c-1.7074 0-2.6047 2.0668-1.3665 3.294l.0004.0004 1.1971 1.1872-6.3202 6.2491c-.3927.3883-.3963 1.0215-.008 1.4142.3884.3927 1.0215.3963 1.4142.008l7.0383-6.9591a1 1 0 0 0 .001-1.4211L14.1901 2H22v7.7362l-1.7958-1.781c-.391-.3877-1.0219-.3864-1.4113.003l-4.8347 4.8347c-.3905.3905-.3905 1.0237 0 1.4142.3905.3905 1.0237.3905 1.4142 0l4.1305-4.1305 1.1939 1.184.0004.0003C21.9046 12.457 24 11.6294 24 9.8944V1.9279C24 .8543 23.124 0 22.0633 0h-8.0421Z"/>
</svg>
