<svg xmlns="http://www.w3.org/2000/svg" viewBox="0 0 24 24" fill="#424242">
    <path fill-rule="evenodd" clip-rule="evenodd"
          d="M9.0753 3c0-1.6568 1.3432-3 3-3H21c1.6568 0 3 1.3432 3 3v11c0 .7538-.8417 1.2422-1.4962.8682L19.2344 13H17v5c0 1.6569-1.3431 3-3 3H6.584L1.491 23.8712C.8367 24.2402 0 23.7514 0 23.0001V7c0-1.6569 1.3432-3 3-3h6.0753V3ZM19.5 11H17V7c0-1.6569-1.3431-3-3-3h-2.9247V3c0-.5523.4477-1 1-1H21c.5523 0 1 .4477 1 1v9.2768l-2.0039-1.145A.9994.9994 0 0 0 19.5 11ZM3 6h11c.5523 0 1 .4477 1 1v11c0 .5523-.4477 1-1 1H6.3214a1 1 0 0 0-.491.1289L2 21.2884V7c0-.5523.4477-1 1-1Zm4.3605 4.786c-.6575 1.1095-2.3781.0899-1.7206-1.0196.686-1.1577 1.942-1.7453 3.1013-1.7659 1.9112-.0338 3.5401 1.75 2.9777 3.6542-.3344 1.1324-1.4373 1.5599-2.0177 2.5057-.6747 1.0992-2.3792.053-1.7046-1.0462.4502-.7335 2.056-1.5978 1.7584-2.5356-.3422-1.0782-1.9795-.493-2.3945.2074Zm.3357 5.4955c0-.5523.4477-1 1-1h.0274c.5523 0 1 .4477 1 1s-.4477 1-1 1h-.0274c-.5523 0-1-.4477-1-1Z"/>
</svg>
