<svg fill="none" xmlns="http://www.w3.org/2000/svg" viewBox="0 0 24 24">
    <path fill-rule="evenodd" clip-rule="evenodd"
          d="M13.77.6209c-1.0348-.8279-2.5051-.8279-3.5399 0L1.0635 7.9542c-1.222.9775-1.42 2.7605-.4425 3.9824.5965.7457 1.493 1.1101 2.379 1.0587V23c0 .5523.4478 1 1 1h5c.5523 0 1-.4477 1-1v-7c0-.5523.4477-1 1-1h2c.5523 0 1 .4477 1 1v7c0 .5523.4477 1 1 1h5c.5523 0 1-.4477 1-1V12.9953c.886.0514 1.7825-.313 2.3791-1.0587.9775-1.2219.7794-3.005-.4425-3.9824L13.77.6209ZM19 12.0617l-7-5.6-7 5.6001V22h3v-6c0-1.6569 1.3432-3 3-3h2c1.6569 0 3 1.3431 3 3v6h3v-9.9383Zm-7.5205-9.879a.8332.8332 0 0 1 1.0411 0l9.1666 7.3332a.8333.8333 0 1 1-1.0411 1.3014l-8.0214-6.417a1 1 0 0 0-1.2494 0l-8.0213 6.417a.8333.8333 0 1 1-1.0412-1.3014l9.1667-7.3333Z"
          fill="#424242"/>
</svg>
