<svg width="20" height="20" viewBox="0 0 20 20" fill="none" xmlns="http://www.w3.org/2000/svg">
<path fill-rule="evenodd" clip-rule="evenodd" d="M10 2C5.58172 2 2 5.58172 2 10C2 14.4183 5.58172 18 10 18C14.4183 18 18 14.4183 18 10C18 5.58172 14.4183 2 10 2ZM0 10C0 4.47715 4.47715 0 10 0C15.5228 0 20 4.47715 20 10C20 15.5228 15.5228 20 10 20C4.47715 20 0 15.5228 0 10Z" fill="#B5BFC7"/>
<path d="M10 7C10.5523 7 11 6.55228 11 6C11 5.44772 10.5523 5 10 5C9.44774 5 9.00002 5.44772 9.00002 6C9.00002 6.55228 9.44774 7 10 7Z" fill="#B5BFC7"/>
<path d="M11 14V9C11.0162 7.66444 8.99193 7.66773 9.00002 9V14C9.01626 15.3311 10.9919 15.3345 11 14Z" fill="#B5BFC7"/>
</svg>
