<svg xmlns="http://www.w3.org/2000/svg" fill="#55B6E2" viewBox=".96 .21 17.66 17.66">
    <path d="m15.482 11.828-1.414-1.414L15.482 9a4.0004 4.0004 0 0 0 0-5.657 4 4 0 0 0-5.657 0L8.411 4.757 6.997 3.343l1.414-1.414a6 6 0 0 1 8.485 8.485l-1.414 1.414Zm-2.829 2.829-1.414 1.414a6.0011 6.0011 0 0 1-4.2527 1.792 6.0007 6.0007 0 0 1-4.267-1.7573A6.001 6.001 0 0 1 .962 11.8386 6 6 0 0 1 2.754 7.586l1.414-1.414 1.414 1.414L4.168 9a4.0006 4.0006 0 0 0-.8672 4.3593 3.9998 3.9998 0 0 0 5.2264 2.1648 4.0004 4.0004 0 0 0 1.2978-.8671l1.414-1.414 1.414 1.414Zm0-9.9 1.415 1.415-7.071 7.07-1.415-1.414 7.071-7.07v-.001Z"/>
</svg>
