<svg fill="none" xmlns="http://www.w3.org/2000/svg" viewBox="0 0 24 24">
    <path fill-rule="evenodd" clip-rule="evenodd"
          d="M7 0C3.134 0 0 3.134 0 7v10c0 3.866 3.134 7 7 7h10c3.866 0 7-3.134 7-7V7c0-3.866-3.134-7-7-7H7ZM2 7c0-2.7614 2.2386-5 5-5h10c2.7614 0 5 2.2386 5 5v10c0 2.7614-2.2386 5-5 5H7c-2.7614 0-5-2.2386-5-5V7Zm8 2.5c0-1.1046.8954-2 2-2s2 .8954 2 2c0 .7087-.3679 1.3321-.9278 1.6887a1 1 0 0 0-.4602.9147l.314 4.3966h-1.852l.314-4.3966a1 1 0 0 0-.4602-.9147C10.3679 10.8321 10 10.2087 10 9.5Zm2-4c-2.2091 0-4 1.7909-4 4 0 1.1957.5252 2.2683 1.3546 3.0002l-.352 4.9286A1.0002 1.0002 0 0 0 10 18.5h4a1.0003 1.0003 0 0 0 .9975-1.0712l-.3521-4.9286C15.4748 11.7683 16 10.6957 16 9.5c0-2.2091-1.7909-4-4-4Z"
          fill="#424242"/>
</svg>
