<svg fill="none" xmlns="http://www.w3.org/2000/svg" viewBox="0 0 24 24">
    <path fill-rule="evenodd" clip-rule="evenodd"
          d="M5.2929.2929A1 1 0 0 1 6 0h14.5c.5523 0 1 .4477 1 1v4.669c1.3386.7743 2.2849 2.1514 2.4678 3.7601a1.001 1.001 0 0 1 .0274.3502C23.9984 9.8525 24 9.926 24 10v6c0 2.5927-1.9733 4.7245-4.5 4.9753V22h1.25c.5523 0 1 .4477 1 1s-.4477 1-1 1h-4.5c-.5523 0-1-.4477-1-1s.4477-1 1-1h1.25v-1h-14C1.567 21 0 19.433 0 17.5V4.1765c0-.5523.4477-1 1-1h4V1a1 1 0 0 1 .2929-.7071ZM18.5 19h.5c1.6569 0 3-1.3431 3-3v-1.9814h-2.3751c-.5522 0-1-.4477-1-1s.4478-1 1-1H22v-1.337h-2.3751c-.5522 0-1-.4477-1-1 0-.5522.4478-1 1-1h2.0706C21.2075 7.6857 20.1838 7 19 7h-1c-1.6569 0-3 1.3431-3 3v6c0 1.6569 1.3431 3 3 3h.5Zm1-17v3.0247A5.0605 5.0605 0 0 0 19 5h-1c-2.7614 0-5 2.2386-5 5v6c0 1.1256.3719 2.1643.9996 3H6.6632A3.4863 3.4863 0 0 0 7 17.5V2h12.5ZM5 5.1765H2V17.5c0 .8284.6716 1.5 1.5 1.5S5 18.3284 5 17.5V5.1765Z"
          fill="#424242"/>
</svg>
