<svg fill="none" xmlns="http://www.w3.org/2000/svg" viewBox="0 0 24 24">
    <path d="M8.8284 10.9632H3m0 0c-1.1046 0-2-.8982-2-2.0061V6.9509c0-1.108.8954-2.0061 2-2.0061h18c1.1046 0 2 .8981 2 2.0061v2.0062c0 1.1079-.8954 2.0061-2 2.0061m-18 0V20.994c0 1.1079.8954 2.0061 2 2.0061h14c1.1046 0 2-.8982 2-2.0061V10.9632m0 0h-6m-3 12.0369V4.9447m0 0 3.335-3.3385c.781-.7835 2.0473-.7835 2.8284 0 .781.7834.781 2.0536 0 2.837l-.5065.5015m-5.6569 0L8.8284 1.6061C8.0474.8227 6.781.8227 6 1.6061c-.715.7173-.7755 1.8424-.1814 2.6286.111.1467.2337.2849.3375.4367l.187.2733"
          stroke="#424242" stroke-width="2" stroke-linecap="round" stroke-linejoin="round"/>
</svg>
