<svg fill="#424242" viewBox="0 0 24 24" xmlns="http://www.w3.org/2000/svg">
    <path d="M7.414.0254c-.7705 0-1.5417.2919-2.123.875-.8278.8305-.8874 1.9946-.5351 3.045H3c-1.6466 0-3 1.359-3 3.0058V8.957c0 1.2578.8932 2.1431 2 2.588v9.4491C2 22.6408 3.3533 24 5 24h14c1.6467 0 3-1.3592 3-3.0059V11.545c1.1068-.4448 2-1.33 2-2.5879V6.9512c0-1.6468-1.3534-3.0059-3-3.0059h-1.6348c.3612-1.0542.3391-2.2091-.4941-3.045-1.1626-1.1661-3.0816-1.1662-4.2441 0l-2.6094 2.6114L9.5527.918a1.0001 1.0001 0 0 0-.0156-.0176c-.5813-.5831-1.3525-.875-2.123-.875zm0 1.9863c.2526 0 .5057.1014.7051.3008.0005.0005.0015-.0005.002 0l1.5508 1.6328H6.8574c-.0894-.1158-.1898-.2452-.2422-.3144h.002c-.2978-.394-.274-.9514.0918-1.3184.1997-.2003.452-.3008.705-.3008Zm9.336 0c.2531 0 .5053.1004.705.3008.3995.4006.3995 1.0232 0 1.4238l-.2109.209h-2.832l1.6309-1.6328c.1997-.2004.4539-.3008.707-.3008ZM3 5.9453h8V22H5c-.5625 0-1-.4368-1-1.0059V11.963h4.8281a1 1 0 0 0 1-1 1 1 0 0 0-1-1H3c-.5625 0-1-.4368-1-1.0059V6.9512c0-.5693.4374-1.0059 1-1.0059Zm10 0h8c.5626 0 1 .4366 1 1.0059V8.957c0 .5691-.4375 1.0059-1 1.0059h-6a1 1 0 0 0-1 1 1 1 0 0 0 1 1h5v9.0312C20 21.5632 19.5625 22 19 22h-6z"/>
</svg>
