<svg xmlns="http://www.w3.org/2000/svg" viewBox="0 0 24 24" fill="#fff">
    <path fill-rule="evenodd" clip-rule="evenodd"
          d="M11.1033 14.3432c-.0122-.1258-.1332-1.8502 1.7466-3.2687 1.1111-.8377.6369-2.6572-.8503-2.6572-.8631 0-1.4991.6221-1.4991 1.3782-.0249 1.1806-1.81 1.1782-1.8003 0 0-1.7534 1.4719-3.0953 3.2994-3.0953 1.8078 0 3.3006 1.4109 3.3006 3.173 0 .5225-.102.9908-.3266 1.418-.6193 1.178-2.0755 1.4394-2.0755 3.052 0 1.0418-1.7002 1.123-1.7948 0Zm.8957 1.4506c-1.1572-.0064-1.1612 1.7048-.0054 1.7064 1.1475.0016 1.1543-1.6999.0054-1.7064Z"/>
    <path fill-rule="evenodd" clip-rule="evenodd"
          d="M11.9995 4c-4.4183 0-8 3.5817-8 8s3.5817 8 8 8 8-3.5817 8-8-3.5817-8-8-8Zm-10 8c0-5.5229 4.4772-10 10-10 5.5229 0 10 4.4771 10 10 0 5.5228-4.4771 10-10 10-5.5228 0-10-4.4772-10-10Z"/>
</svg>
