<svg viewBox="0 0 20 20" fill="none" xmlns="http://www.w3.org/2000/svg">
<path fill-rule="evenodd" clip-rule="evenodd" d="M10 0C4.47715 0 0 4.47715 0 10C0 15.5228 4.47715 20 10 20C15.5228 20 20 15.5228 20 10C20 4.47715 15.5228 0 10 0ZM2 10C2 5.58172 5.58172 2 10 2C14.4183 2 18 5.58172 18 10C18 14.4183 14.4183 18 10 18C5.58172 18 2 14.4183 2 10Z" fill="#A682FF"/>
<path d="M13.6 10.2C13.6 10.8627 14.1373 11.4 14.8 11.4C15.4627 11.4 16 10.8627 16 10.2C16 9.53726 15.4627 9 14.8 9C14.1373 9 13.6 9.53726 13.6 10.2Z" fill="#A682FF"/>
<path d="M8.80002 10.2C8.80002 10.8627 9.33728 11.4 10 11.4C10.6628 11.4 11.2 10.8627 11.2 10.2C11.2 9.53726 10.6628 9 10 9C9.33728 9 8.80002 9.53726 8.80002 10.2Z" fill="#A682FF"/>
<path d="M4.00002 10.2C4.00002 10.8627 4.53728 11.4 5.20002 11.4C5.86276 11.4 6.40002 10.8627 6.40002 10.2C6.40002 9.53726 5.86276 9 5.20002 9C4.53728 9 4.00002 9.53726 4.00002 10.2Z" fill="#A682FF"/>
</svg>
