<svg fill="none" xmlns="http://www.w3.org/2000/svg" viewBox="0 0 20 20">
    <path fill-rule="evenodd" clip-rule="evenodd"
          d="M13.0962 3.9038c-2.5384-2.5384-6.654-2.5384-9.1924 0-2.5384 2.5384-2.5384 6.654 0 9.1924 2.5384 2.5384 6.654 2.5384 9.1924 0 2.5384-2.5384 2.5384-6.654 0-9.1924ZM2.4896 2.4896C5.809-.83 11.191-.83 14.5104 2.4896c3.0802 3.0802 3.3022 7.9363.666 11.2725l4.5307 4.5308c.3905.3905.3905 1.0237 0 1.4142-.3905.3905-1.0237.3905-1.4142 0l-4.5308-4.5307c-3.3362 2.6362-8.1923 2.4142-11.2725-.666C-.83 11.191-.83 5.809 2.4896 2.4896Z"
          fill="#55B6E2"/>
</svg>
