<svg fill="#B5BFC7" xmlns="http://www.w3.org/2000/svg" viewBox="0 0 24 24">
    <path fill-rule="evenodd" clip-rule="evenodd"
          d="M5.152 3.2244c1.521-1.6326 3.956-1.6325 5.4771 0l1.0408 1.1171a1.0002 1.0002 0 0 0 1.4633 0l1.0408-1.117c1.5211-1.6326 3.9561-1.6326 5.4772 0 1.5558 1.6698 1.5587 4.4024.0087 6.0762l-5.5631 5.6564a2.8385 2.8385 0 0 0-1.2569-.4515L9.596 14.151 5.157 9.3155 5.152 9.31c-1.5588-1.673-1.5588-4.4126 0-6.0856ZM6.836 14.1021l-3.15-3.4315c-2.2718-2.4413-2.2709-6.3695.0026-8.8095 2.312-2.4815 6.0917-2.4814 8.4037 0l.3092.3318.3091-.3318c2.312-2.4814 6.0918-2.4815 8.4038 0 2.2743 2.441 2.2743 6.3713 0 8.8123l-.0048.0051a.6333.6333 0 0 1-.0139.0144l-4.6867 4.7654 3.5588-1.5093c1.3581-.576 2.9334-.0386 3.6585 1.2481.7605 1.3495.3274 3.0572-.9836 3.8786l-6.4023 4.0111a5.9929 5.9929 0 0 1-3.7284.889l-5.5382-.5072-3.8652.4853A1.0013 1.0013 0 0 1 2.054 23.33L.071 18.3421a.9992.9992 0 0 1 .466-1.2555l4.6116-2.4044a5.9916 5.9916 0 0 1 1.6875-.5801Zm5.8427 6.0804c1.2372-.0613 2.2716-.9105 2.5971-2.0699l5.4746-2.3219a.8992.8992 0 0 1 1.1342.387c.2358.4183.1015.9478-.3049 1.2024l-6.4023 4.011a3.995 3.995 0 0 1-2.4856.5927l-5.6463-.5171a1.0034 1.0034 0 0 0-.2156.0036l-3.2044.4024-1.3631-3.4289 3.8122-1.9876a3.9964 3.9964 0 0 1 2.2815-.4288l4.269.4666a.8496.8496 0 0 1 .7522.9355.8467.8467 0 0 1-.8001.7552l-2.0403.1011c-.5515.0274-.9758.4968-.9478 1.0484.028.5517.4979.9768 1.0494.9495l2.0402-.1012Z"/>
</svg>
