<svg fill="none" xmlns="http://www.w3.org/2000/svg" viewBox="0 0 24 24">
    <path fill-rule="evenodd" clip-rule="evenodd"
          d="M6.3318 2c-1.418 0-2.5545 1.1388-2.5545 2.5278 0 .9307.5082 1.7484 1.2751 2.1887A1 1 0 0 1 4.752 8.564C3.1764 8.8814 2 10.2624 2 11.9052v1.6459h2c.5523 0 1 .4477 1 1s-.4477 1-1 1H1c-.5523 0-1-.4477-1-1v-2.6459c0-1.991 1.0804-3.7253 2.6852-4.6645a4.49 4.49 0 0 1-.908-2.713C1.7773 2.0202 3.8236 0 6.3319 0c.6275 0 1.2279.1267 1.7747.3569.509.2143.748.8006.5337 1.3096-.2142.509-.8006.748-1.3096.5337A2.5663 2.5663 0 0 0 6.3318 2ZM17.5 6.2107c0-.5523.4477-1 1-1 2.1924 0 4 1.7507 4 3.9474 0 .9713-.3535 1.8555-.9374 2.5396C23.0124 12.4959 24 14.0223 24 15.7896v2.2105c0 .5523-.4477 1-1 1h-2.5c-.5523 0-1-.4477-1-1 0-.5522.4477-1 1-1H22v-1.2105c0-1.4658-1.2145-2.6842-2.75-2.6842h-1.5c-.5523 0-1-.4477-1-1s.4477-1 1-1h.7605c1.1163-.0055 1.9895-.8917 1.9895-1.9473 0-1.059-.8787-1.9474-2-1.9474-.5523 0-1-.4477-1-1ZM8.5 8c0-1.6568 1.3431-3 3-3s3 1.3432 3 3c0 1.6569-1.3431 3-3 3s-3-1.3431-3-3Zm3-5c-2.7614 0-5 2.2386-5 5s2.2386 5 5 5 5-2.2386 5-5-2.2386-5-5-5Zm-1 11c-3.3137 0-6 2.6863-6 6v3c0 .5523.4477 1 1 1h12c.5523 0 1-.4477 1-1v-3c0-3.3137-2.6863-6-6-6h-2Zm-4 6c0-2.2091 1.7909-4 4-4h2c2.2091 0 4 1.7909 4 4v2h-10v-2Z"
          fill="#424242"/>
</svg>
