<svg fill="#fff" xmlns="http://www.w3.org/2000/svg" viewBox="0 0 24 24">
    <path fill-rule="evenodd" clip-rule="evenodd"
          d="M20.5663 2.237 17.592 5.2112c-.3821.3821-.3821 1.0019 0 1.384a.9778.9778 0 0 0 1.3829 0L21.877 3.693c.4956-.4956 1.364-.3228 1.6318.325a6.4833 6.4833 0 0 1 .4908 2.4815c0 3.5893-2.9098 6.4996-6.5 6.4996a6.5213 6.5213 0 0 1-1.2953-.1293l-3.3337 3.3338c.0849.4194.1294.8529.1294 1.296 0 3.5893-2.9098 6.4996-6.5 6.4996-.877 0-1.716-.1742-2.482-.4909-.6475-.2677-.8206-1.1353-.3252-1.6308l2.6833-2.6832c.382-.3822.382-1.0019 0-1.384a.9778.9778 0 0 0-1.383 0l-2.7553 2.7553c-.4804.4804-1.3188.3361-1.6107-.2776A6.4776 6.4776 0 0 1 0 17.4997c0-3.5892 2.9098-6.4996 6.5-6.4996.5514 0 1.0878.0689 1.6005.1988l3.0981-3.098a6.512 6.512 0 0 1-.199-1.6013c0-3.5893 2.9098-6.4996 6.5-6.4996.9962 0 1.9427.2248 2.789.6273.6134.2917.758 1.1294.2777 1.6097Zm-2.6136-.215c-3.1836-.3174-5.7869 2.9877-4.6822 6.0187a.9995.9995 0 0 1-.2324 1.049l-3.9478 3.9478a1.0005 1.0005 0 0 1-1.0499.2326c-2.9996-1.093-6.3401 1.4442-6.0176 4.6822l1.5556-1.5556c1.1632-1.1632 3.0492-1.1632 4.2124 0 1.163 1.163 1.163 3.0484 0 4.2113l-1.3906 1.3906c3.0052.0651 5.2667-2.9785 4.4056-5.8105a.9994.9994 0 0 1 .2495-.9976l4.1349-4.1349a1.0002 1.0002 0 0 1 .9984-.2497c2.8318.8608 5.8743-1.401 5.8096-4.4055l-1.6085 1.6085c-1.1632 1.1631-3.0492 1.1631-4.2124 0-1.163-1.163-1.163-3.0484 0-4.2114l1.7754-1.7754Z"/>
</svg>
