<svg viewBox="0 0 20 20" fill="#A682FF" xmlns="http://www.w3.org/2000/svg">
    <path fill-rule="evenodd" clip-rule="evenodd"
          d="M10 0C4.4771 0 0 4.4771 0 10c0 5.5228 4.4771 10 10 10 5.5228 0 10-4.4772 10-10 0-5.5229-4.4772-10-10-10ZM2 10c0-4.4183 3.5817-8 8-8s8 3.5817 8 8-3.5817 8-8 8-8-3.5817-8-8Z"/>
    <path d="M13.6 10.2c0 .6627.5373 1.2 1.2 1.2s1.2-.5373 1.2-1.2S15.4627 9 14.8 9s-1.2.5373-1.2 1.2ZM8.8 10.2c0 .6627.5373 1.2 1.2 1.2.6628 0 1.2-.5373 1.2-1.2S10.6628 9 10 9c-.6627 0-1.2.5373-1.2 1.2ZM4 10.2c0 .6627.5373 1.2 1.2 1.2.6628 0 1.2-.5373 1.2-1.2S5.8628 9 5.2 9C4.5373 9 4 9.5373 4 10.2Z"/>
</svg>
