<svg xmlns="http://www.w3.org/2000/svg" fill="#FA873F" viewBox="0 0 20 20">
    <path fill-rule="evenodd" clip-rule="evenodd"
          d="M10 18c4.4182 0 8-3.5817 8-8 0-4.4182-3.5818-8-8-8-4.4183 0-8 3.5818-8 8 0 4.4183 3.5817 8 8 8zm10-8c0 5.5229-4.4772 10-10 10-5.5229 0-10-4.4771-10-10C0 4.4772 4.4771 0 10 0c5.5228 0 10 4.4772 10 10z"/>
    <path d="M9.9999 13c-.5522 0-1 .4478-1 1 0 .5523.4478 1 1 1 .5523 0 1-.4477 1-1 0-.5522-.4477-1-1-1zm-1-7v5c-.0161 1.3356 2.0081 1.3323 2 0V6c-.0162-1.331-1.9918-1.3345-2 0z"/>
</svg>
