<svg xmlns="http://www.w3.org/2000/svg" width="21" height="21" viewBox="0 0 21 21">
    <path fill="#FFD166" fill-rule="evenodd" stroke="#FFD166" d="M16.607 20.302c-.187 0-.38-.067-.573-.2l-5.252-3.61c-.042-.028-.304-.028-.346 0l-5.252 3.61c-.435.298-.908.242-1.155-.087-.112-.149-.22-.413-.104-.825l1.586-5.629c.033-.12-.03-.367-.116-.456L1.309 8.931c-.403-.411-.317-.81-.26-.961.055-.152.245-.511.816-.564L7.27 6.9c.121-.011.321-.158.37-.27L9.81 1.6c.235-.54.637-.599.799-.599.162 0 .564.058.797.598L13.58 6.63a.584.584 0 0 0 .37.27l5.405.506c.572.054.762.414.817.566.055.152.14.55-.262.96l-4.086 4.173c-.087.09-.15.336-.115.455l1.584 5.633c.117.41.008.674-.104.823a.718.718 0 0 1-.581.287z"/>
</svg>
