<svg xmlns="http://www.w3.org/2000/svg" width="26" height="21" viewBox="0 0 26 21">
    <g fill="none" fill-rule="evenodd" stroke="#FFF" stroke-width="2">
        <path d="M6.07 15.964v3.013c0 .017.007.023.017.023h4.759c.038 0 .075-.035.076-.066l.102-1.778-4.954-1.192zM1.309 7.835l19.964-6.74c.461-.2.835-.074.835.28 0 0 2.69 5.85 2.69 8.786 0 2.92-2.69 8.785-2.69 8.785 0 .356-.376.48-.835.28 0 0-19.603-5.28-19.964-5.45-.362-.17-.46-5.74 0-5.94z"/>
        <path stroke-linecap="square" d="M21.45 1.509s-2.924 4.712-2.924 8.667c0 3.954 2.925 8.666 2.925 8.666"/>
    </g>
</svg>
