<svg width="24" height="24" viewBox="0 0 24 24" fill="none" xmlns="http://www.w3.org/2000/svg">
    <path fill-rule="evenodd" clip-rule="evenodd" d="M12 23C18.0751 23 23 18.0751 23 12C23 5.92487 18.0751 1 12 1C5.92487 1 1 5.92487 1 12C1 18.0751 5.92487 23 12 23Z" stroke="#A7E07B" stroke-width="1.2"/>
    <path fill-rule="evenodd" clip-rule="evenodd" d="M16.5621 8.7656L11.8253 16.3079C11.6866 16.5285 11.4677 16.6737 11.2255 16.7067C11.1902 16.7123 11.1549 16.7142 11.1196 16.7142C10.9127 16.7142 10.712 16.6322 10.5543 16.4804L7.57707 13.7275C7.22119 13.3852 7.18586 12.7894 7.49779 12.3981C7.81059 12.005 8.35175 11.9682 8.70763 12.3086L10.961 14.3648L15.1506 7.69365C15.4203 7.26468 15.9529 7.15626 16.3432 7.45324C16.7327 7.74927 16.8309 8.33663 16.5621 8.7656Z" fill="#A7E07B"/>
</svg>
