<svg xmlns="http://www.w3.org/2000/svg" width="14" height="14" viewBox="0 0 14 14">
    <path fill="#B5BFC7" fill-rule="evenodd" d="M1.204 8.985c.005-.016.018-.027.023-.042.012-.032.032-.06.048-.091a.777.777 0 0 1 .116-.18c.005-.005.007-.013.012-.018l7.3-7.471c.016-.017.038-.023.056-.038.016-.02.022-.043.04-.06C9.479.384 10.325 0 11.182 0h.002c.766 0 1.467.305 2.03.881.515.527.787 1.168.786 1.855 0 .849-.409 1.711-1.178 2.494-.015.016-.036.021-.053.035-.018.023-.025.049-.045.07L5.26 12.897c-.02.022-.048.03-.07.048a.72.72 0 0 1-.09.06.725.725 0 0 1-.181.082c-.017.005-.029.016-.045.02l-3.928.875a.77.77 0 0 1-.738-.238.808.808 0 0 1-.174-.77l1.171-3.989zm3.124 2.611L11.627 4.2c.016-.016.037-.022.054-.036.016-.021.023-.046.042-.065.456-.463.718-.961.719-1.366 0-.26-.108-.497-.33-.725-.269-.274-.581-.414-.928-.414h-.001c-.433 0-.9.224-1.28.616-.018.018-.041.025-.06.041-.015.02-.022.042-.039.059L2.64 9.643l-.732 2.493 2.421-.54z"/>
</svg>
