<svg xmlns="http://www.w3.org/2000/svg" width="20" height="20" viewBox="0 0 20 20">
    <path fill="#7B8695" fill-rule="evenodd" d="M15.607 19.302c-.187 0-.38-.067-.573-.2l-5.252-3.61c-.042-.028-.304-.028-.346 0l-5.252 3.61c-.435.298-.908.242-1.155-.087-.112-.149-.22-.413-.104-.825l1.586-5.629c.033-.12-.03-.367-.116-.456L.309 7.931c-.403-.411-.317-.81-.26-.961.055-.152.245-.511.816-.564L6.27 5.9c.121-.011.321-.158.37-.27L8.81.6C9.046.059 9.448 0 9.61 0c.162 0 .564.058.797.598L12.58 5.63a.584.584 0 0 0 .37.27l5.405.506c.572.054.762.414.817.566.055.152.14.55-.262.96l-4.086 4.173c-.087.09-.15.336-.115.455l1.584 5.633c.117.41.008.674-.104.823a.718.718 0 0 1-.581.287zm-5.998-5.055c.314 0 .616.089.85.25l4.395 3.02-1.302-4.628c-.152-.533.027-1.234.416-1.63l3.634-3.713-4.765-.447c-.555-.052-1.14-.477-1.36-.99L9.609 1.782 7.742 6.109c-.223.513-.807.939-1.36.99l-4.764.448 3.633 3.712c.386.394.566 1.096.416 1.63l-1.304 4.627 4.395-3.018a1.51 1.51 0 0 1 .85-.251z"/>
</svg>
