<svg xmlns="http://www.w3.org/2000/svg" width="16" height="16" viewBox="0 0 16 16">
    <path fill="#87929F" fill-rule="evenodd" d="M8 16c-4.411 0-8-3.589-8-8 0-4.412 3.589-8 8-8s8 3.588 8 8c0 4.411-3.589 8-8 8zM8 1C4.14 1 1 4.14 1 8s3.14 7 7 7 7-3.14 7-7-3.14-7-7-7zm1.489 7.19c-1.046.846-.991 1.809-.991 1.818a.5.5 0 1 1-.996.089c-.006-.06-.114-1.493 1.357-2.685.467-.378.641-.728.641-1.289 0-.865-.673-1.57-1.5-1.57-.84 0-1.499.659-1.499 1.5a.5.5 0 0 1-1 0A2.473 2.473 0 0 1 8 3.554c1.379 0 2.5 1.153 2.5 2.57 0 .862-.312 1.5-1.011 2.066zm-1.144 3.455c.095.095.15.225.15.355a.504.504 0 0 1-.5.5.526.526 0 0 1-.355-.145.503.503 0 0 1 0-.71.517.517 0 0 1 .705 0z"/>
</svg>
