<svg fill="none" xmlns="http://www.w3.org/2000/svg" viewBox="0 0 10 16">
    <path fill-rule="evenodd" clip-rule="evenodd"
          d="M4.3203 4.6676v2.7812c.021.0025.0377.0068.0544.0064.3754-.0091.7514-.0055 1.126-.0323.3172-.0226.628-.1033.919-.2688.6005-.3413.8007-1.1856.4257-1.8068-.1766-.2927-.4333-.4392-.7126-.5347-.5927-.2025-1.1995-.1556-1.8125-.145Zm-.0008 4.2079v3.0635c.0205.0028.0373.0077.054.0072.5036-.0169 1.0079-.0195 1.5104-.057a2.392 2.392 0 0 0 .9704-.2875c.3046-.1661.5609-.3984.6622-.8023.1323-.5279.023-1.1375-.4672-1.493-.3608-.2617-.7624-.3712-1.1738-.4-.4852-.034-.9723-.0274-1.4586-.0377-.0315-.0006-.063.0043-.0975.0068Zm-3.536 4.7271v-.0844c.0055-.0116.0142-.0226.016-.035.0421-.3042.0835-.6087.1255-.913.0289-.2096.0585-.419.0884-.6321h.1136c.2448-.0003.4897.0056.7343-.0025.2806-.0093.4303-.2042.4303-.544 0-2.0434-.0001-4.0868-.0004-6.1302 0-.318-.1626-.5763-.4183-.6566a.778.778 0 0 0-.2155-.0372c-.2912-.0057-.5825-.005-.8739-.0066V3.0646h2.341v-.141L3.1278.7673h1.1546l.0028 2.1165v.1197h.9243V.7673h1.1721c-.0013.021-.0038.042-.0038.0629 0 .7197 0 1.4393.0004 2.159 0 .0235.004.0472.0064.074.0643.0084.1248.016.1853.0245.4462.0621.8867.1552 1.3073.3541.4447.2102.825.5195 1.0719 1.0286.1762.3633.2444.7625.257 1.1777.0279.9147-.2503 1.6336-.9295 2.0935-.0185.0124-.0354.0286-.0594.0483.1182.0444.2268.081.333.1257.6505.2744 1.1067.773 1.2666 1.608.026.136.0426.2745.0636.4118v.6534c-.0176.1416-.0335.2835-.053.4247-.134.9793-.5661 1.6873-1.322 2.097-.5324.2884-1.099.4026-1.6744.4693-.1495.0173-.299.031-.4528.0468 0 .1586-.0001.3056.0001.4526.001.621.0022 1.2419.0033 1.8628h-1.172v-2.2861H4.285v.1268l-.0028 2.1593H3.1276v-2.3218H3.019c-.7075-.0033-1.415-.0066-2.1226-.0104-.0377-.0001-.0753-.0047-.1129-.0072Z"
          fill="url(#a)"/>
    <defs>
        <linearGradient id="a" x1="-3.9319" y1="10.171" x2="14.3134" y2="34.4496" gradientUnits="userSpaceOnUse">
            <stop stop-color="#FAD961"/>
            <stop offset=".3557" stop-color="#F7BD5B"/>
            <stop offset="1" stop-color="#F28B50"/>
        </linearGradient>
    </defs>
</svg>
