<svg fill="none" xmlns="http://www.w3.org/2000/svg" viewBox="0 0 10 16">
    <path fill-rule="evenodd" clip-rule="evenodd"
          d="M.7704 8.0352a.2217.2217 0 0 0 .1195.1378l4.1958 2.1059a.5544.5544 0 0 0 .4472 0l4.1958-2.1158c.1273-.064.1661-.205.0945-.3185L5.4239.8434c-.07-.1127-.1866-.1142-.2575 0L.7946 7.8544a.2217.2217 0 0 0-.0242.1808Zm.156 1.5983C.813 9.5703.781 9.6076.8603 9.7212l4.3368 6.195c.0777.1112.208.1128.288 0l4.3778-6.1905c.0785-.1112.0496-.1524-.0685-.0876L5.536 11.9832a.4872.4872 0 0 1-.4236 0L.9264 9.6335Z"
          fill="#737BB1"/>
</svg>
