<svg fill="none" xmlns="http://www.w3.org/2000/svg" viewBox="0 0 25 24">
    <path d="M23.7939 0H1.8564c-.3125 0-.5625.0938-.75.2813s-.2812.4375-.2812.75v21.9375c0 .3124.0937.5624.2812.75.1875.1874.4375.2812.75.2812H13.669v-9.2812h-3.1875v-3.6563h3.1875v-2.625c0-1.5625.4219-2.75 1.2657-3.5625.8437-.8125 1.9531-1.2188 3.3281-1.2188 1.1875 0 2.125.0313 2.8125.0938v3.2813h-1.875c-.6875 0-1.1563.1406-1.4063.4218-.25.2813-.375.7344-.375 1.3594v2.25h3.5625l-.4687 3.6563h-3.0938V24h6.375c.3125 0 .5625-.0938.75-.2812.1875-.1876.2813-.4376.2813-.75V1.0312c0-.3124-.0938-.5624-.2813-.75C24.3564.0938 24.1064 0 23.7939 0Z"
          fill="#55B6E2"/>
</svg>
