<svg fill="none" xmlns="http://www.w3.org/2000/svg" viewBox="0 0 25 24">
    <path d="M23.7939 0H1.8564c-.3125 0-.5625.0938-.75.2813s-.2812.4375-.2812.75v21.9375c0 .3124.0937.5624.2812.75.1875.1874.4375.2812.75.2812H23.794c.3125 0 .5625-.0938.75-.2812.1875-.1876.2813-.4376.2813-.75V1.0312c0-.3124-.0938-.5624-.2813-.75C24.3564.0938 24.1064 0 23.7939 0ZM7.9502 20.4375H4.3877V9h3.5625v11.4375ZM6.1689 7.4062c-.5625 0-1.0468-.1875-1.453-.5625-.4063-.375-.6095-.8593-.6095-1.453 0-.5938.2032-1.0782.6094-1.4532.4063-.375.8906-.5625 1.4531-.5625.5625 0 1.047.1875 1.4532.5625.4062.375.6094.8438.6094 1.4063 0 .5625-.2032 1.0468-.6094 1.453-.4063.4063-.8906.6094-1.4531.6094Zm15.0938 13.0313h-3.5625v-5.5313c0-.9374-.0625-1.625-.1875-2.0624-.25-.6876-.7969-1.0313-1.6406-1.0313-.8438 0-1.4219.3125-1.7344.9375-.25.4375-.375 1.125-.375 2.0625v5.625h-3.5625V9h3.375v1.5938h.0937c.25-.5.6719-.9375 1.2657-1.3125.5937-.375 1.2656-.5625 2.0156-.5625 1.6875 0 2.8437.5 3.4687 1.5.5625.875.8438 2.1874.8438 3.9374v6.2813Z"
          fill="#55B6E2"/>
</svg>
