<svg xmlns="http://www.w3.org/2000/svg" viewBox="0 0 1000 242">
    <g fill="none">
        <circle fill="#007896" cx="120.18" cy="121" r="120.18"/>
        <g fill="#FFF">
            <path d="M132.7 151.26a17.23 17.23 0 0 1-24.57 0l-15.66-15.83a10.72 10.72 0 0 0-15.29 0c-6.7837 6.9022-6.7837 17.9678 0 24.87l31 31.29a17.23 17.23 0 0 0 24.57 0l30.92-31.33c6.7837-6.9022 6.7837-17.9678 0-24.87a10.72 10.72 0 0 0-15.29 0l-15.68 15.87ZM73.94 96.16a16.61 16.61 0 0 1 23.69-.25L112.57 111a10.33 10.33 0 0 0 14.73-.15c6.6183-6.5962 6.7162-17.2836.22-24L98 57a16.61 16.61 0 0 0-23.69.25L44.22 87.74c-6.6183 6.5962-6.7162 17.2836-.22 24a10.33 10.33 0 0 0 14.73-.15l15.21-15.43Z"/>
            <path d="M142.8 95.48a16.61 16.61 0 0 1 23.69-.25l14.94 15.11a10.33 10.33 0 0 0 14.73-.15c6.6183-6.5962 6.7162-17.2836.22-24l-29.54-29.87a16.61 16.61 0 0 0-23.69.25l-30.09 30.49c-6.6183 6.5962-6.7162 17.2836-.22 24a10.33 10.33 0 0 0 14.73-.15l15.23-15.43Z"/>
        </g>
        <g fill="#FFF">
            <path d="m403.57 82.35-33.31 42.87a1.06 1.06 0 0 1-.83.41h-4.07a1.06 1.06 0 0 1-.83-.4L331.22 82.7a1.06 1.06 0 0 0-1.89.65v79.76c0 .5854-.4746 1.06-1.06 1.06h-13.56c-.5854 0-1.06-.4746-1.06-1.06l.19-111.23c.0055-.5815.4785-1.05 1.06-1.05h9.76a1.06 1.06 0 0 1 .83.41l41.16 52.92a1.06 1.06 0 0 0 1.67 0l41-52.92a1.06 1.06 0 0 1 .84-.41h9.76c.5854 0 1.06.4746 1.06 1.06v111.22c0 .5854-.4746 1.06-1.06 1.06h-13.4c-.5854 0-1.06-.4746-1.06-1.06V83a1.06 1.06 0 0 0-1.89-.65ZM466.09 193.63h-13.76a1 1 0 0 1-.94-1.47l14.8-32.11a1 1 0 0 0 0-.86l-33.14-72.91a1 1 0 0 1 .94-1.46h14.7a1 1 0 0 1 1 .64l22.59 55.08a14.44 14.44 0 0 1 1.51 5.48h.76a18.26 18.26 0 0 1 1.12-5.44v-.08l22.58-55a1 1 0 0 1 1-.64h13.59a1 1 0 0 1 .95 1.45L467 193a1 1 0 0 1-.91.63ZM621.69 151.73a1 1 0 0 1-.1 1.36l-.87.87a47.15 47.15 0 0 1-4.44 3.49 46.65 46.65 0 0 1-7.46 4.44 52.37 52.37 0 0 1-10.58 3.4 61.73 61.73 0 0 1-13.79 1.51c-16.7467 0-30.4133-5.6667-41-17-10.5867-11.3333-15.8767-25.3767-15.87-42.13 0-16.8733 5.2567-30.9767 15.77-42.31 10.5133-11.3333 24.21-17 41.09-17A58.06 58.06 0 0 1 605.23 52c6.3 2.3933 10.7067 4.7867 13.22 7.18l3.1 2.95a1 1 0 0 1 .12 1.38l-7.73 10.31a1 1 0 0 1-1.58.11l-.43-.39c-.5667-.5067-1.7933-1.42-3.68-2.74a56.13 56.13 0 0 0-5.86-3.59 35.79 35.79 0 0 0-7.84-2.83 40 40 0 0 0-9.92-1.23c-11.9667 0-21.79 4.2833-29.47 12.85s-11.52 19.1467-11.52 31.74c0 12.4667 3.84 22.9833 11.52 31.55s17.5033 12.85 29.47 12.85a39.63 39.63 0 0 0 15.11-2.93c4.76-1.94 8.21-3.85 10.35-5.73l.07-.06 2.14-2.14a1 1 0 0 1 1.57.11l7.82 10.34ZM678.76 96.25c0 .5523-.4477 1-1 1h-7.34a19.37 19.37 0 0 0-14.45 6.14 21.23 21.23 0 0 0-6 15.4v44.29c0 .5523-.4477 1-1 1h-13.44c-.5523 0-1-.4477-1-1V85.87c0-.5523.4477-1 1-1h9.59c.5523 0 1 .4477 1 1l.41 12.4h.94a21.44 21.44 0 0 1 8.88-10 26.86 26.86 0 0 1 14-3.59h7.34c.5523 0 1 .4477 1 1l.07 10.57ZM719.77 193.63H706a1 1 0 0 1-.95-1.48l14.8-32.09a1 1 0 0 0 0-.87l-33.13-72.9a1 1 0 0 1 .95-1.47h14.68a1 1 0 0 1 1 .65l22.59 55.08c1 2.27 2.41 4.09 2.41 5.48h-1c0-1.39 1.27-3.21 2-5.48l22.59-55.08a1 1 0 0 1 1-.65h13.57a1 1 0 0 1 1 1.46L720.73 193a1 1 0 0 1-.96.63ZM790.66 154.15v38.44c0 .5523-.4477 1-1 1H776.2c-.5523 0-1-.4477-1-1V85.86c0-.5523.4477-1 1-1h10.3c.5523 0 1 .4477 1 1l.09 10.49h.77a1 1 0 0 0 .86-.46l.64-1a26.55 26.55 0 0 1 3-3.21 29.86 29.86 0 0 1 5.48-4.16 33.81 33.81 0 0 1 8.22-3.21 41.84 41.84 0 0 1 11.05-1.42 34.54 34.54 0 0 1 26.45 11.43c7.0533 7.62 10.58 17.6633 10.58 30.13 0 12.2133-3.4933 22.1933-10.48 29.94-6.5138 7.5385-16.0387 11.7954-26 11.62a45.53 45.53 0 0 1-10.86-1.23 26.8 26.8 0 0 1-7.84-3 41.82 41.82 0 0 1-4.82-3.5 15.84 15.84 0 0 1-2.71-2.79l-.06-.09-.73-1.27-.48.02Zm6.23-8.78a23.27 23.27 0 0 0 19.11 7.81 22.13 22.13 0 0 0 14.32-6.1c5.7867-5.5867 8.68-13.1167 8.68-22.59 0-8.3133-2.2967-15.1767-6.89-20.59a21.93 21.93 0 0 0-17.47-8.12 23.11 23.11 0 0 0-17.76 7.84c-4.7867 5.2267-7.18 12.1833-7.18 20.87 0 8.6867 2.3967 15.6467 7.19 20.88ZM873.18 83.77V61.7c0-.5799.4701-1.05 1.05-1.05h13.38c.5799 0 1.05.4701 1.05 1.05v22.07c0 .5799.4701 1.05 1.05 1.05h20.56c.5799 0 1.05.4701 1.05 1.05v10.17c0 .5799-.4701 1.05-1.05 1.05h-20.56c-.5799 0-1.05.4701-1.05 1.05v42.77c0 7.9333 3.6667 11.9 11 11.9a17.55 17.55 0 0 0 5.2-.85 18.69 18.69 0 0 0 4.25-1.79l.51-.26a1.05 1.05 0 0 1 1.44.53l4 9.22a1 1 0 0 1-.31 1.24 19.85 19.85 0 0 1-2.12 1.36 28.6 28.6 0 0 1-5.09 2.07A33.89 33.89 0 0 1 896 166c-7.5067-.2333-13.1333-2.43-16.88-6.59-4-4.4067-6-10.5133-6-18.32v-43c0-.5799-.4701-1.05-1.05-1.05h-12.38a1.05 1.05 0 0 1-1.05-1.05V85.88c0-.5799.4701-1.05 1.05-1.05h12.44a1.05 1.05 0 0 0 1.05-1.06ZM988.29 154.72c-7.8067 7.5533-17.3767 11.33-28.71 11.33-11.46 0-21.03-3.7767-28.71-11.33s-11.52-17.5033-11.52-29.85c0-12.4667 3.8733-22.5733 11.62-30.32 7.7467-7.7467 17.2867-11.62 28.62-11.62a39 39 0 0 1 28.71 11.71c7.8 7.8133 11.7 17.89 11.7 30.23s-3.9033 22.29-11.71 29.85Zm-11-9c4.7867-5.2267 7.18-12.2467 7.18-21.06 0-8.6667-2.3933-15.72-7.18-21.16a22.76 22.76 0 0 0-17.76-8.12 23.16 23.16 0 0 0-17.85 8c-4.8467 5.3333-7.27 12.4167-7.27 21.25s2.3933 15.8533 7.18 21.06a24.24 24.24 0 0 0 35.7 0v.03Z"/>
        </g>
    </g>
</svg>
