<svg xmlns="http://www.w3.org/2000/svg" fill="none" viewBox="2.83 2.96 200.81 48.07">
    <path d="M26.9086 46.0001c10.9798 0 19.8806-8.8647 19.8806-19.8 0-10.9352-8.9008-19.8-19.8806-19.8-10.9797 0-19.8805 8.8648-19.8805 19.8 0 10.9353 8.9008 19.8 19.8805 19.8z"
          fill="#fff"/>
    <path d="M26.9629 2.9639c-4.7732 0-9.4392 1.4096-13.408 4.0508-3.9688 2.641-7.062 6.395-8.8887 10.787a23.9456 23.9456 0 0 0-1.3734 13.8874c.9312 4.6625 3.2298 8.9453 6.605 12.3068 3.3751 3.3615 7.6753 5.6507 12.3568 6.5781a24.224 24.224 0 0 0 13.9439-1.3678c4.4099-1.8192 8.179-4.8999 10.8309-8.8527 2.6519-3.9527 4.0673-8.5998 4.0673-13.3536 0-6.3748-2.5427-12.4884-7.0686-16.9961-4.526-4.5076-10.6645-7.04-17.0652-7.04zm8.7274 31.894-6.2092 6.266a3.4612 3.4612 0 0 1-1.1295.7619 3.4725 3.4725 0 0 1-2.675 0 3.4612 3.4612 0 0 1-1.1295-.7619l-6.2252-6.258a3.5408 3.5408 0 0 1-1.0217-2.487c0-.9304.3669-1.8235 1.0217-2.487a2.1591 2.1591 0 0 1 3.0704 0l3.1448 3.166c.322.3261.7059.5851 1.1295.7619a3.4725 3.4725 0 0 0 2.6749 0 3.4616 3.4616 0 0 0 1.1296-.7619l3.1407-3.17a2.1591 2.1591 0 0 1 3.0704 0 3.5402 3.5402 0 0 1 1.0228 2.4823 3.5407 3.5407 0 0 1-1.0147 2.4857v.002zm6.5304-10.018a2.079 2.079 0 0 1-1.4727.6323 2.0818 2.0818 0 0 1-.8034-.1524 2.0765 2.0765 0 0 1-.6819-.4499l-3.0001-3.022a3.3377 3.3377 0 0 0-1.0968-.7235 3.3494 3.3494 0 0 0-2.5793.0271 3.337 3.337 0 0 0-1.0812.7464l-3.0584 3.082a2.1072 2.1072 0 0 1-.7976.5099 2.114 2.114 0 0 1-.9414.1101 2.0317 2.0317 0 0 1-1.2792-.6l-3.0002-3.022a3.3367 3.3367 0 0 0-1.0968-.7235 3.349 3.349 0 0 0-2.5792.0271 3.3374 3.3374 0 0 0-1.0813.7464l-3.0503 3.088a2.0798 2.0798 0 0 1-1.4727.6323 2.0826 2.0826 0 0 1-.8035-.1524 2.075 2.075 0 0 1-.6818-.4499 3.4123 3.4123 0 0 1-.9655-2.409 3.4129 3.4129 0 0 1 1.0097-2.391l6.0405-6.092a3.3349 3.3349 0 0 1 1.0806-.7473 3.3475 3.3475 0 0 1 2.5792-.0293 3.3372 3.3372 0 0 1 1.0974.7226l4.4962 4.528 4.5746-4.616a3.337 3.337 0 0 1 1.0812-.7464 3.3486 3.3486 0 0 1 2.5793-.0271c.4101.1663.783.4122 1.0968.7235l5.932 5.974a3.4126 3.4126 0 0 1 .9665 2.41 3.4133 3.4133 0 0 1-1.0107 2.392v.002zm41.6497-5.5698-6.6891 8.574a.2123.2123 0 0 1-.1667.082h-.8173a.2144.2144 0 0 1-.1667-.08l-6.6891-8.506a.2133.2133 0 0 0-.3394.008.2115.2115 0 0 0-.0401.122v15.952a.2112.2112 0 0 1-.0624.1499.213.213 0 0 1-.1505.0621h-2.723a.213.213 0 0 1-.1505-.0621.2116.2116 0 0 1-.0624-.1499l.0382-22.246a.212.212 0 0 1 .2149-.212h1.9599a.2134.2134 0 0 1 .1667.082l8.2655 10.584a.2117.2117 0 0 0 .1676.0814.2133.2133 0 0 0 .1677-.0814l8.2334-10.584a.2132.2132 0 0 1 .1687-.082h1.9559a.2137.2137 0 0 1 .1428.0662.2116.2116 0 0 1 .058.1458v22.246a.2115.2115 0 0 1-.0623.1499.2134.2134 0 0 1-.1506.0621h-2.6788a.213.213 0 0 1-.1505-.0621.2112.2112 0 0 1-.0624-.1499v-16.022a.2129.2129 0 0 0-.2708-.1997.2132.2132 0 0 0-.1067.0697zm12.5558 22.256h-2.7653a.2006.2006 0 0 1-.2123-.1919.1987.1987 0 0 1 .0236-.1021l2.972-6.422a.1985.1985 0 0 0 0-.172l-6.6549-14.582a.199.199 0 0 1 .0866-.2703.201.201 0 0 1 .1021-.0217h2.952a.2005.2005 0 0 1 .2008.128l4.5364 11.016c.173.3417.276.7143.3032 1.096h.1526a3.6421 3.6421 0 0 1 .2249-1.088v-.016l4.5341-11a.2008.2008 0 0 1 .08-.0969.1996.1996 0 0 1 .121-.0311h2.729a.2016.2016 0 0 1 .18.0901.2024.2024 0 0 1 .011.1999l-9.3881 21.338a.2005.2005 0 0 1-.1887.126zm31.2448-8.3799a.2015.2015 0 0 1 .043.1399.1937.1937 0 0 1-.064.1321l-.174.174a9.4664 9.4664 0 0 1-.892.698c-.47.3417-.972.639-1.498.888-.682.3011-1.394.529-2.125.68-.908.204-1.837.3053-2.769.302-3.363 0-6.107-1.1333-8.233-3.4-2.126-2.2667-3.188-5.0753-3.187-8.426 0-3.3747 1.056-6.1953 3.167-8.462 2.111-2.2667 4.862-3.4 8.251-3.4a11.699 11.699 0 0 1 4.175.728c1.265.4787 2.15.9573 2.655 1.436l.622.59c.039.034.064.0817.068.1332a.199.199 0 0 1-.043.1428l-1.557 2.054a.1953.1953 0 0 1-.066.0621.2012.2012 0 0 1-.251-.0401l-.086-.078c-.114-.1013-.361-.284-.739-.548a11.45 11.45 0 0 0-1.177-.718 7.1944 7.1944 0 0 0-1.575-.566 8.0617 8.0617 0 0 0-1.992-.246c-2.403 0-4.375.8567-5.918 2.57-1.542 1.7133-2.313 3.8293-2.313 6.348 0 2.4933.771 4.5967 2.313 6.31 1.543 1.7133 3.515 2.57 5.918 2.57a7.9914 7.9914 0 0 0 3.035-.586c.956-.388 1.648-.77 2.078-1.146l.014-.012.43-.428a.2022.2022 0 0 1 .163-.0654.2006.2006 0 0 1 .152.0874l1.575 2.076zm11.462-11.0959a.1986.1986 0 0 1-.059.1415.2022.2022 0 0 1-.142.0585h-1.474a3.907 3.907 0 0 0-1.589.3093c-.502.213-.953.5287-1.325.9267a4.2487 4.2487 0 0 0-.915 1.4185 4.2326 4.2326 0 0 0-.29 1.6615v8.858a.2019.2019 0 0 1-.058.1415.2022.2022 0 0 1-.142.0585h-2.687a.2005.2005 0 0 1-.201-.2v-15.45a.2006.2006 0 0 1 .201-.2h1.926c.053 0 .104.0211.142.0586a.2016.2016 0 0 1 .058.1414l.083 2.48h.189a4.2897 4.2897 0 0 1 1.783-2 5.4104 5.4104 0 0 1 2.811-.718h1.474c.053 0 .104.0211.142.0586a.1984.1984 0 0 1 .059.1414l.014 2.114zm8.235 19.476h-2.761a.1985.1985 0 0 1-.104-.0205.2015.2015 0 0 1-.08-.0709.2023.2023 0 0 1-.031-.1014.1953.1953 0 0 1 .024-.1032l2.98-6.418a.1885.1885 0 0 0 .02-.087.1882.1882 0 0 0-.02-.087l-6.652-14.58a.1942.1942 0 0 1-.024-.1027.19.19 0 0 1 .032-.1003.198.198 0 0 1 .079-.0703.2.2 0 0 1 .103-.0207h2.948a.2012.2012 0 0 1 .201.13l4.518 11.016c.201.454.484.818.484 1.096h-.2c0-.278.255-.642.401-1.096l4.537-11.016a.1993.1993 0 0 1 .078-.0981.203.203 0 0 1 .122-.0319h2.725a.2022.2022 0 0 1 .107.0166c.033.0151.062.039.082.069a.196.196 0 0 1 .035.1015.2012.2012 0 0 1-.023.1049l-9.39 21.344a.1989.1989 0 0 1-.075.0927.2064.2064 0 0 1-.116.0333zm14.235-7.8964v7.688c0 .0531-.022.104-.059.1415a.2022.2022 0 0 1-.142.0585h-2.701a.2005.2005 0 0 1-.201-.2v-21.346a.2006.2006 0 0 1 .201-.2h2.068a.2006.2006 0 0 1 .201.2l.018 2.098h.155a.1994.1994 0 0 0 .172-.092l.129-.2c.183-.2302.384-.4449.602-.642a6.013 6.013 0 0 1 1.101-.832 6.7993 6.7993 0 0 1 1.651-.642 8.4314 8.4314 0 0 1 2.219-.284 6.96 6.96 0 0 1 2.906.5651 6.934 6.934 0 0 1 2.405 1.7209c1.416 1.524 2.125 3.5327 2.125 6.026 0 2.4427-.702 4.4387-2.105 5.988a6.742 6.742 0 0 1-2.351 1.7406 6.7645 6.7645 0 0 1-2.87.5834 9.1758 9.1758 0 0 1-2.181-.246 5.3911 5.3911 0 0 1-1.574-.6 8.3387 8.3387 0 0 1-.968-.7 3.1367 3.1367 0 0 1-.544-.558l-.012-.018-.147-.254-.098.004zm1.251-1.756a4.67 4.67 0 0 0 1.736 1.2285c.666.271 1.386.3851 2.103.3335a4.4549 4.4549 0 0 0 2.876-1.22c1.163-1.1173 1.745-2.6226 1.745-4.516 0-1.6626-.461-3.0353-1.384-4.118a4.4007 4.4007 0 0 0-1.565-1.2162 4.422 4.422 0 0 0-1.943-.4078 4.658 4.658 0 0 0-1.954.3929 4.6362 4.6362 0 0 0-1.608 1.1731c-.962 1.0454-1.442 2.4367-1.442 4.174 0 1.7374.48 3.1294 1.442 4.176h-.006zm15.322-12.3197v-4.414a.208.208 0 0 1 .062-.1485.21.21 0 0 1 .149-.0615h2.687c.056 0 .109.0221.149.0615a.2121.2121 0 0 1 .062.1485v4.414c0 .0557.022.1091.061.1485a.212.212 0 0 0 .149.0615h4.129a.21.21 0 0 1 .149.0615.208.208 0 0 1 .062.1485v2.034a.208.208 0 0 1-.062.1485.21.21 0 0 1-.149.0615h-4.127a.2116.2116 0 0 0-.149.0615.2112.2112 0 0 0-.061.1485v8.554c0 1.5866.736 2.38 2.208 2.38.355-.004.707-.0613 1.045-.17.298-.0838.585-.2041.853-.358l.103-.052a.2113.2113 0 0 1 .24.0356.207.207 0 0 1 .049.0704l.803 1.844c.02.0421.025.0899.014.1352a.202.202 0 0 1-.076.1128 3.9564 3.9564 0 0 1-.426.272c-.327.1703-.669.309-1.022.414a6.8323 6.8323 0 0 1-2.318.334c-1.507-.0467-2.637-.486-3.389-1.318-.803-.8814-1.205-2.1027-1.205-3.664v-8.6a.208.208 0 0 0-.062-.1485.21.21 0 0 0-.149-.0615h-2.488a.2103.2103 0 0 1-.149-.0615.208.208 0 0 1-.062-.1485v-2.022a.208.208 0 0 1 .062-.1485.21.21 0 0 1 .149-.0615h2.498a.214.214 0 0 0 .15-.0622.2114.2114 0 0 0 .045-.0688.2057.2057 0 0 0 .016-.081zm23.113 14.1904c-1.568 1.5106-3.49 2.266-5.766 2.266-2.301 0-4.223-.7554-5.765-2.266-1.542-1.5107-2.313-3.5007-2.313-5.97 0-2.4934.777-4.5147 2.333-6.064 1.556-1.5494 3.471-2.324 5.747-2.324a7.8627 7.8627 0 0 1 3.127.5758 7.8375 7.8375 0 0 1 2.639 1.7662c1.567 1.5613 2.351 3.576 2.351 6.044 0 2.468-.784 4.4586-2.353 5.972zm-2.209-1.8c.961-1.0454 1.442-2.4494 1.442-4.212 0-1.7334-.481-3.144-1.442-4.232a4.5764 4.5764 0 0 0-1.6-1.2123 4.5864 4.5864 0 0 0-1.967-.4117 4.667 4.667 0 0 0-1.97.4046 4.6492 4.6492 0 0 0-1.614 1.1954c-.974 1.0666-1.46 2.4833-1.46 4.25 0 1.7666.48 3.1706 1.442 4.212.456.4942 1.01.8888 1.627 1.1587a4.8868 4.8868 0 0 0 3.915 0 4.8685 4.8685 0 0 0 1.627-1.1587v.006z"
          fill="#067997"/>
</svg>
