<svg xmlns="http://www.w3.org/2000/svg" viewBox="0 0 25 23" fill="#fff">
    <path fill-rule="evenodd" clip-rule="evenodd"
          d="M21.2598 1.2011c.2666-.1078.5694-.2024.8945-.2168.3251-.0143.6724.0509 1.0273.2637.355.2128.6414.6084.75 1.0215.1087.413.0829.8317-.0156 1.2812l.0059-.0234s-3.3642 17.2708-3.4434 17.6894v.002c-.0847.443-.2838.7954-.6035 1.1308-.3197.3355-.8176.6504-1.4453.6504-1.0572 0-1.5365-.6578-1.5879-.7304l-3.6504-3.4532-3.0098 2.6036-.0214.0156s-.3582.3223-.9434.3223c-.1372 0-.291-.0309-.4434-.0801-.0128-.0028-.0235-.0048-.0331-.0066-.019-.0036-.0338-.0063-.0528-.013a.1352.1352 0 0 1-.023-.0113c-.0065-.0037-.013-.0074-.02-.0101l-.0039-.002c-.0648-.0263-.129-.0548-.1875-.0918-.1464-.0926-.2671-.2108-.371-.3457-.2079-.2697-.3675-.6096-.5352-1.1523-.236-.763-1.1972-3.7061-1.4957-4.6202l-.057-.1748a415.8272 415.8272 0 0 1-.3454-.1413c-.9922-.4059-3.3867-1.3857-4.2347-1.7317-.2693-.1099-.5838-.255-.8809-.5488C.2361 12.5343 0 12.0422 0 11.5468c0-.6143.3623-1.1656.7031-1.4316.2918-.2278.5692-.3358.7007-.387.022-.0085.04-.0155.0532-.0212.8254-.3551 1.9158-.8245 3.1617-1.3607 2.4482-1.0537 5.4965-2.3657 8.3129-3.5768 2.1249-.9138 4.1168-1.769 5.6211-2.414l.0383-.0165c1.481-.635 2.4211-1.0383 2.6688-1.1379Zm.7059 1.8945c-.0005-.0039-.0011-.008.0011-.0214-.1167.0476-1.145.4844-2.625 1.1191a6268.0245 6268.0245 0 0 0-5.6211 2.414 21610.2201 21610.2201 0 0 0-8.0092 3.4468c-1.3714.5903-2.5718 1.1072-3.4634 1.4908l-.0137.0058c.9399.3836 3.5128 1.4367 4.3808 1.7919l.2364.0968c2.8202-1.6403 9.1118-5.3072 10.5449-6.2207.0136-.0087.0286-.0185.0448-.0291.1152-.0754.2898-.1897.4239-.1897.17 0 .2461.106.2461.252 0 .109-.0667.2191-.3847.5351-.395.395-6.9512 7.1817-6.9512 7.1817l-1.0488 4.1992 3.5254-3.0469 4.9863 4.7168.0195.0215s.1221.0527.1817.0938c.0175-.0246.0349-.056.0486-.0805.019-.0344.0308-.0555.0256-.027.1228-.6493 3.4453-17.6992 3.4453-17.6992l.0019-.0117.002-.0117c.004-.0186.0035-.0228.0028-.0274Z"/>
</svg>
