<svg xmlns="http://www.w3.org/2000/svg" viewBox="0 0 30 24" fill="#55B6E2">
    <path d="M29.8252 2.7961c-1.0097.466-2.1747.7767-3.4951.932 1.3204-.7766 2.2136-1.9029 2.6796-3.3786-1.2427.699-2.5631 1.2039-3.9612 1.5146-.5436-.6214-1.2038-1.0874-1.9805-1.398C22.2913.1552 21.4757 0 20.6214 0c-1.7088 0-3.1651.5825-4.369 1.7476-1.2039 1.165-1.8058 2.602-1.8058 4.3106 0 .466.0777.932.233 1.3981-2.4854-.1553-4.835-.7961-7.0485-1.9223-2.2136-1.1262-4.0583-2.6214-5.534-4.4855-.5437 1.0098-.8156 2.0195-.8156 3.0292s.233 1.9611.699 2.8543c.4661.8932 1.1263 1.6117 1.9807 2.1554-1.0097 0-1.9418-.233-2.7961-.699v.1164c0 1.4758.466 2.7768 1.398 3.903.932 1.1262 2.097 1.8058 3.4952 2.0388-.466.1553-1.0098.233-1.6311.233-.233 0-.6214-.0388-1.165-.1165.466 1.2427 1.2038 2.2524 2.2135 3.0291 1.0097.7767 2.1748 1.1651 3.4952 1.1651-2.2525 1.7864-4.7767 2.6796-7.5728 2.6796-.6214 0-1.0874-.0388-1.3981-.1165C2.8738 23.1068 6.0194 24 9.4369 24c3.4951 0 6.6408-.8932 9.4369-2.6796 2.4854-1.6311 4.466-3.8058 5.9417-6.5243 1.3204-2.6408 1.9806-5.3592 1.9806-8.1553v-.8156c1.2427-.8543 2.2524-1.864 3.0291-3.029Z"/>
</svg>
