<svg xmlns="http://www.w3.org/2000/svg" width="99" height="77" viewBox="0 0 99 77">
    <defs>
        <linearGradient id="a" x1="17.388%" x2="82.47%" y1="26.818%" y2="126.979%">
            <stop offset="0%" stop-opacity=".1"/>
            <stop offset="100%" stop-opacity="0"/>
        </linearGradient>
        <linearGradient id="b" x1="21.811%" x2="121.205%" y1="-21.98%" y2="77.938%">
            <stop offset="0%" stop-opacity=".1"/>
            <stop offset="100%" stop-opacity="0"/>
        </linearGradient>
    </defs>
    <g fill="none" fill-rule="nonzero">
        <path fill="#005268" d="M94.265 26.338V9.251c0-4.606-3.675-8.352-8.194-8.352H8.233C3.713.9.039 4.645.039 9.251v58.46c0 4.605 3.675 8.35 8.194 8.35H86.07c4.52 0 8.194-3.745 8.194-8.351V50.623a6.246 6.246 0 0 0 4.097-5.88V32.218a6.246 6.246 0 0 0-4.097-5.879z"/>
        <path fill="#1EB8E7" d="M86.376 72.106H8.092c-2.271 0-4.12-1.887-4.12-4.204V9.058c0-2.317 1.849-4.203 4.12-4.203h78.284c2.271 0 4.12 1.886 4.12 4.203v16.813h-12.36c-6.817 0-12.361 5.656-12.361 12.61 0 6.953 5.544 12.609 12.36 12.609h12.36v16.812c0 2.317-1.848 4.204-4.12 4.204z"/>
        <path fill="#1EB8E7" d="M94.429 43.976a1.974 1.974 0 0 1-1.967 1.978H78.697c-4.338 0-7.866-3.548-7.866-7.912 0-4.363 3.528-7.911 7.866-7.911h13.765c1.085 0 1.967.886 1.967 1.978v11.867z"/>
        <path fill="url(#a)" d="M80.887 45.957h10.21l-10.21-11.129-4.964 5.598z"/>
        <ellipse cx="78.697" cy="38.042" fill="#005268" rx="3.933" ry="3.956"/>
        <path fill="url(#b)" d="M90.36 68.15c.039-.23.136-.439.136-.68V50.845H78.184c-2.736 0-5.241-.939-7.287-2.473h-.066l19.53 19.779z"/>
        <path d="M94.265 26.338V9.251c0-4.606-3.675-8.352-8.194-8.352H8.233C3.713.9.039 4.645.039 9.251v58.46c0 4.605 3.675 8.35 8.194 8.35H86.07c4.52 0 8.194-3.745 8.194-8.351V50.623a6.246 6.246 0 0 0 4.097-5.88V32.218a6.246 6.246 0 0 0-4.097-5.879z"/>
    </g>
</svg>
