<svg xmlns="http://www.w3.org/2000/svg" width="125" height="119" viewBox="0 0 125 119">
    <g fill="none" fill-rule="nonzero">
        <path fill="#E3EDFF" d="M44.091 3.78h11.648v2.631H44.091z"/>
        <path fill="#1EB8E7" d="M90.095 10.169V46.55h-.215A1.879 1.879 0 0 0 88 48.43v.708H75.977a4.918 4.918 0 0 1-.716-.706c-.469-.586-.825-1.458-1.203-2.38-.604-1.473-1.285-3.142-2.715-4.284-1.43-1.143-3.197-1.43-4.76-1.691-.987-.166-1.919-.321-2.603-.65-.683-.327-1.345-.941-2.074-1.6-1.19-1.075-2.537-2.295-4.348-2.706-1.754-.398-3.46.103-4.97.544-.975.286-1.897.556-2.68.556-.785 0-1.707-.27-2.684-.556-1.503-.441-3.221-.942-4.967-.544-1.811.411-3.161 1.631-4.349 2.706-.729.659-1.418 1.283-2.074 1.6-.656.319-1.618.484-2.605.65-1.566.25-3.34.556-4.76 1.69-1.42 1.136-2.111 2.812-2.715 4.285-.376.922-.734 1.794-1.202 2.382a4.918 4.918 0 0 1-.717.704H11.811v-.709a1.879 1.879 0 0 0-1.879-1.879h-.215V10.17h80.378zm-4.747 31.418a1.881 1.881 0 0 0-1.43-3.48l-6.35 2.629a1.879 1.879 0 0 0 .719 3.607c.246 0 .49-.05.719-.143l6.342-2.613zm-8.675-11.461a1.88 1.88 0 1 0-2.657-2.656l-3.19 3.192a1.88 1.88 0 0 0 2.658 2.658l3.19-3.194zM66.03 20.235a1.88 1.88 0 0 0-3.472-1.446l-2.628 6.344a1.88 1.88 0 1 0 3.472 1.438l2.628-6.336zm-14.236 2.342v-4.509a1.879 1.879 0 1 0-3.758 0v4.51a1.879 1.879 0 1 0 3.758 0zm-12.911 5.011a1.884 1.884 0 0 0 1.017-2.455l-2.628-6.344a1.879 1.879 0 1 0-3.472 1.438l2.628 6.344a1.876 1.876 0 0 0 2.455 1.017zM29 33.32a1.877 1.877 0 0 0 0-2.656l-3.2-3.201a1.879 1.879 0 1 0-2.657 2.655l3.199 3.202a1.879 1.879 0 0 0 2.658 0zm-5.722 9.87a1.882 1.882 0 0 0-1.017-2.454l-6.343-2.628a1.882 1.882 0 1 0-1.438 3.48l6.343 2.627c.23.089.473.132.72.128.757 0 1.441-.453 1.735-1.152zM88.001 61.326v27.61a16.535 16.535 0 0 0-6.608 11.417H18.437a16.535 16.535 0 0 0-6.608-11.416v-27.61h27.194v10.8c0 1.037.841 1.878 1.879 1.878h18.023a1.879 1.879 0 0 0 1.88-1.878v-10.8H88z"/>
        <path fill="#E3EDFF" d="M49.915 59.77a1.856 1.856 0 1 1-.005 3.713 1.856 1.856 0 0 1 .005-3.712z"/>
        <path fill="#1EB8E7" d="M57.047 53.006v17.242H42.78V53.006h14.266zm-1.518 8.623a5.617 5.617 0 1 0-11.234-.005 5.617 5.617 0 0 0 11.234.005z"/>
        <path fill="#E3EDFF" d="M8.071 50.308v36.544a16.404 16.404 0 0 0-4.178-1.044v-35.5H8.07zM39.02 52.896v4.672H11.827v-4.672h.511zM60.804 52.896h27.197v4.672H60.804zM95.942 50.308v35.5a16.351 16.351 0 0 0-4.178 1.044V50.308h4.178z"/>
        <path fill="#FFD166" d="M95.942 89.596v10.757H85.17a12.804 12.804 0 0 1 10.772-10.757z"/>
        <path fill="#E3EDFF" d="M14.65 100.353H3.892V89.596c5.557.836 9.92 5.2 10.756 10.757z"/>
        <path fill="#FFD166" d="M71.318 49.138H28.51c.27-.548.5-1.11.728-1.663.471-1.153.915-2.24 1.581-2.771.666-.531 1.811-.717 3.034-.92 1.222-.202 2.452-.408 3.622-.972 1.17-.563 2.067-1.39 2.96-2.197.895-.806 1.81-1.636 2.661-1.831.794-.18 1.907.145 3.081.489 1.133.33 2.415.706 3.738.706 1.322 0 2.605-.376 3.737-.706 1.175-.344 2.285-.67 3.081-.487.852.193 1.729.988 2.658 1.83.93.841 1.819 1.643 2.964 2.196 1.144.554 2.415.77 3.62.972 1.204.203 2.377.394 3.036.92.658.526 1.11 1.618 1.578 2.768.228.554.458 1.13.729 1.666z"/>
        <path fill="#005268" d="M99.7 48.43v53.802a1.879 1.879 0 0 1-1.88 1.88H2.005a1.879 1.879 0 0 1-1.879-1.88V48.43c0-1.037.841-1.879 1.879-1.879h3.963V8.29c0-1.038.841-1.879 1.879-1.879H40.33v-4.51c0-1.037.84-1.878 1.878-1.878h15.406c1.038 0 1.879.84 1.879 1.878v4.51h32.48c1.038 0 1.879.841 1.879 1.879v38.26h3.963a1.879 1.879 0 0 1 1.883 1.88zm-3.758 51.923V89.596a12.804 12.804 0 0 0-10.772 10.757h10.772zm0-14.545v-35.5h-4.183v36.544a16.351 16.351 0 0 1 4.183-1.044zM90.1 46.55V10.17H9.734V46.55h.216c1.038 0 1.879.842 1.879 1.88v.708h12.024c.262-.21.502-.445.716-.704.469-.588.827-1.46 1.203-2.382.603-1.473 1.285-3.142 2.715-4.284 1.43-1.143 3.196-1.43 4.76-1.691.986-.166 1.92-.321 2.605-.65.684-.327 1.345-.941 2.074-1.6 1.187-1.075 2.537-2.295 4.349-2.706 1.753-.398 3.456.103 4.967.544.977.286 1.899.556 2.683.556.784 0 1.706-.27 2.68-.556 1.503-.441 3.224-.942 4.97-.544 1.811.411 3.159 1.631 4.349 2.706.729.659 1.415 1.283 2.074 1.6.659.319 1.616.484 2.603.65 1.565.25 3.341.556 4.76 1.69 1.417 1.136 2.11 2.812 2.715 4.285.378.922.734 1.794 1.202 2.38.214.26.454.496.716.706H88.02v-.709c0-1.037.84-1.879 1.878-1.879h.216-.013zm-2.099 42.387v-27.61H60.804v10.8a1.879 1.879 0 0 1-1.879 1.878H40.902a1.879 1.879 0 0 1-1.879-1.878v-10.8H11.829v27.61a16.535 16.535 0 0 1 6.608 11.416h62.956A16.535 16.535 0 0 1 88 88.937zm0-31.369v-4.672H60.804v4.672h27.197zm-59.491-8.43h42.808c-.27-.548-.501-1.112-.73-1.666-.468-1.15-.914-2.237-1.577-2.768-.664-.531-1.814-.717-3.037-.92-1.222-.202-2.452-.408-3.62-.972-1.167-.563-2.068-1.39-2.963-2.197-.894-.806-1.806-1.636-2.658-1.829-.796-.182-1.906.143-3.08.487-1.133.33-2.416.706-3.738.706-1.323 0-2.605-.376-3.738-.706-1.174-.344-2.287-.67-3.08-.489-.853.195-1.732.99-2.661 1.831-.93.842-1.819 1.644-2.961 2.197-1.142.554-2.417.77-3.622.972-1.205.203-2.375.394-3.034.92-.659.526-1.11 1.618-1.58 2.77-.228.554-.459 1.128-.73 1.664zm28.537 21.11V53.006H42.78v17.242h14.266zM55.739 6.41v-2.63h-11.65v2.63h11.65zM39.023 57.568v-4.672H11.829v4.672h27.194zM9.95 100.353h4.7A12.806 12.806 0 0 0 3.892 89.596v10.757H9.95zm-1.879-13.5V50.307H3.893v35.5c1.432.163 2.837.514 4.178 1.044z"/>
        <path fill="#FFD166" d="M78.287 45.846a3.382 3.382 0 0 1-1.293-6.513l6.34-2.628a3.388 3.388 0 1 1 2.588 6.263l-6.343 2.628c-.41.166-.85.251-1.292.25z"/>
        <path fill="#005268" d="M84.63 37.965a1.879 1.879 0 0 1 .718 3.622l-6.342 2.628a1.879 1.879 0 0 1-1.438-3.472l6.35-2.635c.228-.096.472-.145.719-.146l-.008.003zm.007-3.01c-.643 0-1.279.127-1.871.374l-6.34 2.628a4.885 4.885 0 0 0 1.86 9.392c.633 0 1.26-.122 1.847-.36l6.342-2.628a4.885 4.885 0 0 0-1.868-9.4l.03-.005z"/>
        <path fill="#FFD166" d="M72.144 35.364a3.384 3.384 0 0 1-2.392-5.762l3.189-3.192a3.382 3.382 0 1 1 4.784 4.78l-3.178 3.182c-.636.64-1.501.997-2.403.992z"/>
        <path fill="#005268" d="M75.346 26.912a1.879 1.879 0 0 1 1.327 3.209l-3.189 3.199a1.879 1.879 0 0 1-2.657-2.656l3.189-3.191c.351-.355.83-.554 1.33-.554v-.007zm0-3a4.852 4.852 0 0 0-3.452 1.429l-3.187 3.189a4.886 4.886 0 0 0 6.91 6.907l3.188-3.192a4.886 4.886 0 0 0-3.454-8.34l-.005.008z"/>
        <path fill="#FFD166" d="M61.663 29.234a3.382 3.382 0 0 1-3.12-2.09 3.352 3.352 0 0 1 0-2.59l2.627-6.34a3.387 3.387 0 1 1 6.262 2.585l-2.627 6.346a3.377 3.377 0 0 1-3.142 2.089z"/>
        <path fill="#005268" d="M64.291 17.63a1.881 1.881 0 0 1 1.736 2.6l-2.625 6.34a1.881 1.881 0 0 1-2.455 1.018 1.879 1.879 0 0 1-1.017-2.455l2.628-6.344a1.876 1.876 0 0 1 1.736-1.162l-.003.003zm.003-3.01a4.867 4.867 0 0 0-4.51 3.022L57.16 23.98a4.886 4.886 0 0 0 2.643 6.384h.025a4.885 4.885 0 0 0 6.358-2.65l2.628-6.347a4.888 4.888 0 0 0-4.51-6.764l-.01.018zM49.915 56.013a5.614 5.614 0 1 1-5.616 5.616 5.622 5.622 0 0 1 5.616-5.616zm1.856 5.616a1.859 1.859 0 1 0-3.718-.005 1.859 1.859 0 0 0 3.718.005z"/>
        <path fill="#FFD166" d="M49.915 25.952a3.387 3.387 0 0 1-3.382-3.382v-4.51a3.382 3.382 0 1 1 6.764 0v4.51a3.387 3.387 0 0 1-3.382 3.382z"/>
        <path fill="#005268" d="M49.915 16.181c1.037 0 1.879.842 1.879 1.88v4.509a1.879 1.879 0 1 1-3.758 0v-4.51a1.877 1.877 0 0 1 1.879-1.879zm0-3.006a4.89 4.89 0 0 0-4.885 4.885v4.51a4.885 4.885 0 1 0 9.77 0v-4.51a4.89 4.89 0 0 0-4.885-4.885z"/>
        <path fill="#FFD166" d="M38.164 29.234a3.37 3.37 0 0 1-3.126-2.092l-2.628-6.348a3.382 3.382 0 1 1 6.247-2.59l2.63 6.348a3.39 3.39 0 0 1-3.123 4.682z"/>
        <path fill="#005268" d="M35.534 17.63c.76 0 1.445.46 1.736 1.162l2.627 6.343a1.884 1.884 0 0 1-1.736 2.598c-.76.001-1.445-.457-1.736-1.16l-2.627-6.343a1.882 1.882 0 0 1 1.736-2.6zm0-3.007a4.885 4.885 0 0 0-4.51 6.764l2.628 6.341a4.885 4.885 0 0 0 6.358 2.653h.03a4.895 4.895 0 0 0 2.64-6.38l-2.627-6.346a4.875 4.875 0 0 0-4.51-3.007l-.01-.025z"/>
        <path fill="#FFD166" d="M27.673 35.364a3.372 3.372 0 0 1-2.39-.987l-3.194-3.196a3.382 3.382 0 1 1 4.785-4.78l3.186 3.191a3.382 3.382 0 0 1-2.39 5.762l.003.01z"/>
        <path fill="#005268" d="M24.481 26.912c.5-.001.978.197 1.33.55l3.19 3.192a1.882 1.882 0 0 1-2.658 2.666l-3.19-3.192a1.88 1.88 0 0 1 1.328-3.206v-.01zm0-2.997a4.885 4.885 0 0 0-3.454 8.34l3.189 3.192a4.884 4.884 0 1 0 6.909-6.907l-3.19-3.192a4.857 4.857 0 0 0-3.456-1.433h.002z"/>
        <path fill="#FFD166" d="M21.543 45.846c-.439 0-.873-.085-1.28-.25l-6.355-2.633a3.382 3.382 0 1 1 2.59-6.248l6.343 2.628a3.382 3.382 0 0 1-1.298 6.503z"/>
        <path fill="#005268" d="M15.198 37.965c.247 0 .491.05.719.145l6.343 2.628a1.879 1.879 0 0 1-.717 3.605 1.914 1.914 0 0 1-.716-.143l-6.346-2.613a1.879 1.879 0 0 1 .72-3.617l-.003-.005zm.002-3.002a4.885 4.885 0 0 0-1.87 9.4l6.344 2.628a4.885 4.885 0 0 0 3.713-9.036l-6.318-2.63a4.854 4.854 0 0 0-1.871-.374l.002.012z"/>
        <path fill="#005268" d="M16.849 77.162H32.88a2.673 2.673 0 0 0 0-5.344H16.849a2.673 2.673 0 1 0 0 5.344zM32.027 89.526h16.032a2.673 2.673 0 0 0 0-5.344H32.027a2.673 2.673 0 1 0 0 5.344zM65.734 81.95h16.032a2.673 2.673 0 1 0 0-5.344H65.734a2.673 2.673 0 1 0 0 5.344zM55.045 101.072h16.032a2.673 2.673 0 1 0 0-5.343H55.045a2.673 2.673 0 1 0 0 5.343z" opacity=".5"/>
        <path fill="#005268" d="M123.98 68.427l-20.48-7.23a1.205 1.205 0 0 0-.802 0l-20.481 7.23c-.482.171-.804.627-.804 1.138v14.457c0 18.71 2.773 25.554 21.142 34.824a1.2 1.2 0 0 0 1.085 0c18.369-9.27 21.142-16.102 21.142-34.824V69.565c0-.51-.32-.966-.802-1.138z"/>
        <path fill="#A682FF" d="M103.082 115.76c-14.704-7.498-18.527-12.334-19.259-25.243h-.03c-.09-1.85-.126-3.843-.126-6.013l.539-13.606 18.876-6.263 18.862 6.263.538 13.606c0 2.17-.035 4.164-.125 6.013h-.03c-.731 12.909-4.54 17.745-19.245 25.243z"/>
        <path fill="#000" d="M103.139 111.294c-16.992-8.663-19.276-12.056-19.276-29.976v2.255c0 17.92 2.284 23.722 19.276 32.386 16.991-8.664 19.276-14.463 19.276-32.386v-2.255c0 17.92-2.285 21.313-19.276 29.976z" opacity=".1"/>
        <path fill="#005268" d="M95.912 82.924c0 2.15.958 4.189 2.615 5.56l-1.398 9.935a1.205 1.205 0 0 0 1.193 1.373h9.644a1.205 1.205 0 0 0 1.192-1.373l-1.397-9.936a7.228 7.228 0 1 0-11.85-5.559z"/>
        <path fill="#DFDFE3" d="M107.966 82.924a4.818 4.818 0 0 1-2.162 4.009c-.386.257-.59.713-.526 1.172l1.303 9.27h-6.882l1.303-9.27c.064-.46-.14-.915-.526-1.172a4.818 4.818 0 1 1 7.49-4.009z"/>
        <path fill="#000" d="M102.022 97.375l1.197-8.518c.064-.46-.14-.915-.526-1.173a4.818 4.818 0 0 1 2.655-8.836c.148 0 .288.03.434.043a4.814 4.814 0 1 0-5.299 8.042c.386.257.59.713.527 1.172l-1.303 9.27h2.315z" opacity=".1"/>
    </g>
</svg>
