<svg xmlns="http://www.w3.org/2000/svg" width="116" height="115" viewBox="0 0 116 115">
    <g fill="none" fill-rule="evenodd">
        <g fill="#A682FF" fill-rule="nonzero">
            <path d="M83.652 22.597l3.811-3.811 9.267 9.267-3.811 3.811zM25.595 112.66L2.479 89.641c8.78-10.377 12.529-14.511 17.768-19.324L45 94.966c-4.835 5.217-9.152 9.165-19.406 17.693zM67.334 39.219c-11.521 8.376-15.903 6.646-29.488 16.346l21.962 21.87c9.697-13.49 7.985-17.862 16.424-29.351l-6.996-1.894-1.902-6.971z"/>
        </g>
        <g fill="#9877EA" fill-rule="nonzero">
            <path d="M87.994 26.93l3.812-3.812 4.934 4.934-3.811 3.812zM25.595 112.66c10.254-8.53 14.571-12.475 19.398-17.694L32.322 82.343l-18.589 18.506 11.862 11.81zM59.808 77.435c9.697-13.49 7.985-17.862 16.424-29.351l-6.996-1.894-.13-.474L48.53 66.204l11.278 11.23z"/>
        </g>
        <g fill="#FFD166" fill-rule="nonzero">
            <path d="M59.808 77.435C56.754 81.687 52.14 87.262 45 94.977L20.245 70.329c7.74-7.113 13.347-11.71 17.6-14.753l21.963 21.859zM84.808 23.762c-7.517 7.485-13.028 12.226-17.476 15.457l1.903 6.97 6.995 1.895c3.255-4.43 8.009-9.923 15.53-17.399l-6.952-6.923z"/>
        </g>
        <g fill="#FFD166" fill-rule="nonzero">
            <path d="M95.387 16.795l8.082-8.081 2.899 2.899-8.082 8.081zM103.338 27.96l10.725-3.942 1.415 3.849-10.726 3.942zM83.691 10.851L87.633.126l3.849 1.414-3.942 10.726z"/>
        </g>
        <path fill="#005268" fill-rule="nonzero" d="M81.2 22.589l1.172 1.168c-6.284 6.19-11.543 10.796-16.052 14.078-5.434 3.951-9.235 5.59-13.26 7.325-4.206 1.815-8.543 3.688-15.022 8.174l-1.2.84-1.646 1.175.016.016c-4.132 3.085-9.04 7.224-14.918 12.58l-1.214 1.117-1.315 1.208c-4.837 4.567-8.829 9.068-16.61 18.262L.135 89.735l25.356 25.24 1.203-1.003c9.4-7.816 13.87-11.831 18.345-16.543l1.214-1.31 1.119-1.208c5.374-5.847 9.53-10.741 12.635-14.861l.016.016 1.18-1.641.01-.014.84-1.166c4.47-6.407 6.349-10.715 8.168-14.885 1.752-4.022 3.41-7.82 7.403-13.257 3.297-4.49 7.933-9.73 14.144-15.985l1.173 1.168 6.243-6.216-11.746-11.695-6.239 6.214zm-55.502 87.75L4.805 89.545c7.562-8.911 11.164-12.863 15.392-16.844L40.91 93.315l1.7 1.692c-4.202 4.43-8.404 8.234-16.912 15.333zm19.25-17.843L22.73 70.371c5.935-5.404 10.856-9.534 14.95-12.557l9.938 9.896 9.934 9.902c-3.036 4.075-7.188 8.973-12.603 14.884zm22.115-31.505c-1.703 3.898-3.457 7.933-7.486 13.79L40.51 55.798c5.924-4.045 9.982-5.796 13.916-7.493 3.691-1.595 7.204-3.107 11.892-6.278l1.518 5.556 5.574 1.51c-3.207 4.694-4.74 8.206-6.348 11.897l.001.002zm8.49-14.865l-4.914-1.33-1.337-4.899c4.43-3.322 9.523-7.828 15.504-13.716l4.531 4.506c-5.915 5.954-10.444 11.025-13.786 15.437l.001.002zm17.386-16.688l-6.876-6.85 1.38-1.372 6.877 6.845-1.38 1.377z"/>
        <g fill="#FFD166" fill-rule="nonzero">
            <path d="M35.874 20.246h3.44v-2.335h2.345v-3.423h-2.345v-2.336h-3.44v2.336h-2.346v3.423h2.346zM106.884 74.472h-3.44v2.335H101.1v3.425h2.345v2.334h3.44v-2.334h2.346v-3.425h-2.346zM69.195 94.771h-3.44v2.336H63.41v3.425h2.345v2.335h3.44v-2.335h2.346v-3.425h-2.346zM7.928 55.1h4.118v4.101H7.928zM84.052 66.6h4.118v4.101h-4.118zM18.827 38.95h4.118v4.1h-4.118z"/>
        </g>
        <g fill="#FFF" fill-rule="nonzero">
            <path d="M25.646 108.283l-6.54-6.512 2.433-2.423 4.294 4.276 6.581-5.582 2.23 2.607zM14.05 96.733l2.911-2.912 3.304 3.304-2.911 2.912z"/>
        </g>
        <path fill="#FFF" d="M44.91 70.656c-2.16-2.16-5.654-2.167-7.804-.016-2.15 2.15-2.143 5.644.017 7.803 2.16 2.16 5.653 2.167 7.803.017a5.494 5.494 0 0 0 1.608-3.898 5.542 5.542 0 0 0-1.625-3.906z"/>
        <path fill="#007896" fill-rule="nonzero" d="M45.435 69.92c-2.451-2.452-6.417-2.46-8.858-.02-2.44 2.441-2.432 6.407.02 8.858 2.45 2.452 6.416 2.46 8.857.02a6.236 6.236 0 0 0 1.825-4.426 6.29 6.29 0 0 0-1.844-4.433zm-4.266 7.334l-2.295.009a.786.786 0 0 1-.551-.226.786.786 0 0 1-.226-.55l.015-2.29a.78.78 0 0 1 .787-.787.429.429 0 0 1 .433.432l-.006 1.16a1.03 1.03 0 0 0 1.037 1.038l1.168.002a.429.429 0 0 1 .433.433.78.78 0 0 1-.79.785l-.005-.006zm3.043-.641a.42.42 0 0 1-.3-.123.393.393 0 0 1-.119-.285l-.002-1.107a.979.979 0 0 0-.29-.698 1.01 1.01 0 0 0-.723-.298l-1.12.011a.421.421 0 0 1-.36-.194.393.393 0 0 1-.076-.236l-.003-1.107a.979.979 0 0 0-.289-.698 1.01 1.01 0 0 0-.723-.298l-1.121.011a.421.421 0 0 1-.413-.413.779.779 0 0 1 .754-.754l2.23-.012a.75.75 0 0 1 .54.22.72.72 0 0 1 .212.515l-.012 1.81 1.838-.006a.755.755 0 0 1 .54.22.72.72 0 0 1 .217.52l-.015 2.195a.779.779 0 0 1-.762.735l-.003-.008z"/>
    </g>
</svg>
