<svg xmlns="http://www.w3.org/2000/svg" width="99" height="87" viewBox="0 0 99 87">
    <g fill="none" fill-rule="evenodd" stroke="#005268" stroke-width="2.71">
        <path fill="#077493" d="M8.772 2.114L1.407 26.206l88.712 27.122 7.365-24.092L8.772 2.114zM76.87 45.051c-4.572-1.397-7.167-6.191-5.784-10.714 1.383-4.523 6.215-7.047 10.787-5.649 4.571 1.398 7.167 6.192 5.784 10.715s-6.215 7.046-10.787 5.648z"/>
        <path fill="#1EB8E7" d="M20.251 14.094l-2.629 8.598 36.353 11.115 2.629-8.599-36.353-11.114zM3.729 62.5l11.827 22.244 70.785-37.637c6.142-3.266 8.474-10.893 5.208-17.035-3.266-6.142-10.893-8.474-17.035-5.208L3.729 62.5zM83.47 45.077c-4.667 2.482-10.442.763-12.896-3.852-2.454-4.615-.649-10.364 4.018-12.845 4.666-2.481 10.442-.763 12.895 3.852 2.454 4.615.65 10.364-4.017 12.845z"/>
    </g>
</svg>
