<svg xmlns="http://www.w3.org/2000/svg" width="109" height="99" viewBox="0 0 109 99">
    <g fill="none" fill-rule="evenodd">
        <path stroke="#005268" stroke-width="2.599" d="M41.273 81.945c3.504 8.203 7.617 13.019 12.337 14.448 7.081 2.144 16.201-1.305 18.286-11.763 2.086-10.46 2.086-16.418 5.45-20.266 2.242-2.565 4.642-4 7.2-4.307"/>
        <path fill="#1EB8E7" stroke="#005268" stroke-width="2.599" d="M33.4 63.785l1.372 3.985-1.748.602 5.564 16.16 7.16-2.465-5.564-16.16-1.749.602-1.372-3.985-3.663 1.26zM85.3 58.954l.267 1.38 3.157-.614.916 4.716 16.781-3.262-2.178-11.204-16.78 3.262.992 5.109-3.156.613z"/>
        <g stroke="#005268" stroke-width="2.599">
            <path fill="#1EB8E7" d="M7.787 8.134a8.959 8.959 0 0 0-6.142 11.081l9.158 31.94a8.959 8.959 0 0 0 3.18 4.654l9.61 7.326a8.959 8.959 0 0 0 7.9 1.487l5.552-1.592a8.959 8.959 0 0 0 5.913-5.448l4.267-11.304a8.959 8.959 0 0 0 .23-5.633l-9.159-31.94a8.959 8.959 0 0 0-11.08-6.142L7.786 8.133z"/>
            <path fill="#077493" d="M7.019 18.146a.98.98 0 0 0-.672 1.213L13.55 44.48a.98.98 0 0 0 1.213.672l26.154-7.5a.98.98 0 0 0 .672-1.212L34.385 11.32a.98.98 0 0 0-1.212-.672l-26.154 7.5z"/>
        </g>
        <path fill="#005268" d="M103.845 52.514l3.124-.607 1.458 7.503-3.123.607z"/>
    </g>
</svg>
