<svg xmlns="http://www.w3.org/2000/svg" width="139" height="144" viewBox="0 0 139 144">
    <g fill="none" fill-rule="evenodd">
        <g fill-rule="nonzero">
            <path fill="#1EB8E7" d="M2.615 73.63h19.919V41.266H2.615zM22.534 73.63h29.875V25.084H22.534zM52.41 73.63h19.916V41.266H52.409z"/>
            <path fill="#E3EDFF" d="M32.49 36.286H30a1.245 1.245 0 0 1-1.245-1.245v-2.489c0-.688.557-1.245 1.245-1.245h2.489c.688 0 1.245.557 1.245 1.245v2.489c0 .688-.557 1.245-1.245 1.245M44.94 36.286h-2.49a1.245 1.245 0 0 1-1.245-1.245v-2.489c0-.688.557-1.245 1.245-1.245h2.49c.689 0 1.246.557 1.246 1.245v2.489c0 .688-.557 1.245-1.245 1.245M32.49 46.245H30A1.245 1.245 0 0 1 28.757 45v-2.489c0-.688.557-1.245 1.245-1.245h2.489c.688 0 1.245.557 1.245 1.245V45c0 .688-.557 1.245-1.245 1.245M44.94 46.245h-2.49A1.245 1.245 0 0 1 41.205 45v-2.489c0-.688.557-1.245 1.245-1.245h2.49c.689 0 1.246.557 1.246 1.245V45c0 .688-.557 1.245-1.245 1.245M32.49 56.205H30a1.245 1.245 0 0 1-1.245-1.246v-2.49c0-.688.557-1.246 1.245-1.246h2.489c.688 0 1.245.558 1.245 1.245v2.49c0 .687-.557 1.245-1.245 1.245M44.94 56.205h-2.49a1.245 1.245 0 0 1-1.245-1.246v-2.49c0-.688.557-1.246 1.245-1.246h2.49c.689 0 1.246.558 1.246 1.245v2.49c0 .687-.557 1.245-1.245 1.245M32.493 73.63h9.957V62.428h-9.957zM8.84 68.653h7.469v-9.96H8.84zM8.84 53.714h7.469v-7.469H8.84zM58.632 68.653h7.47v-9.96h-7.47zM58.632 53.714h7.47v-7.469h-7.47z"/>
            <path fill="#FFD166" d="M38.716 21.343a4.98 4.98 0 0 1-4.974-4.973 1.24 1.24 0 1 1 2.48 0 2.495 2.495 0 1 0 2.494-2.495 4.974 4.974 0 1 1 4.973-4.974 1.24 1.24 0 0 1-2.478 0 2.495 2.495 0 1 0-2.495 2.495 4.975 4.975 0 0 1 0 9.95v-.003z"/>
            <path fill="#FFD166" d="M38.716 26.323a1.24 1.24 0 0 1-1.24-1.24V1.434a1.24 1.24 0 0 1 2.48 0v23.65a1.24 1.24 0 0 1-1.24 1.24z"/>
            <path fill="#005268" d="M52.41 74.872H22.533a1.24 1.24 0 0 1-1.24-1.24V25.08c0-.685.555-1.24 1.24-1.24h29.875c.685 0 1.24.555 1.24 1.24v48.552a1.24 1.24 0 0 1-1.24 1.24zM23.772 72.39h27.395V26.323H23.773v46.068z"/>
            <path fill="#005268" d="M72.326 74.872H52.409a1.24 1.24 0 0 1-1.24-1.24V41.264c0-.685.556-1.24 1.24-1.24h19.917c.684 0 1.24.555 1.24 1.24v32.368a1.24 1.24 0 0 1-1.24 1.24zm-18.677-2.48h17.437V42.506H53.65V72.393zM22.534 74.872H2.617a1.24 1.24 0 0 1-1.235-1.242V41.262c0-.685.555-1.24 1.24-1.24h19.912c.684 0 1.239.555 1.239 1.24V73.63a1.24 1.24 0 0 1-1.24 1.242zm-18.677-2.48h17.437V42.506H3.857v29.888z"/>
            <path fill="#005268" d="M2.617 42.505H1.372a1.24 1.24 0 0 1 0-2.479h1.245a1.24 1.24 0 0 1 0 2.48zM73.571 42.505h-1.245a1.24 1.24 0 0 1 0-2.479h1.245a1.24 1.24 0 0 1 0 2.48zM54.898 26.323H20.043a1.24 1.24 0 1 1 0-2.479h34.855a1.24 1.24 0 0 1 0 2.479zM32.49 37.528H30a2.487 2.487 0 0 1-2.485-2.485v-2.491A2.487 2.487 0 0 1 30 30.067h2.489a2.487 2.487 0 0 1 2.485 2.485v2.489a2.487 2.487 0 0 1-2.483 2.487zM30 32.548v2.495h2.495v-2.491L30 32.548zM44.94 37.528h-2.49a2.487 2.487 0 0 1-2.485-2.485v-2.491a2.487 2.487 0 0 1 2.485-2.485h2.49a2.487 2.487 0 0 1 2.486 2.485v2.489a2.487 2.487 0 0 1-2.485 2.487zm-2.488-4.98v2.495h2.495v-2.491l-2.495-.004zM32.49 47.485H30A2.487 2.487 0 0 1 27.517 45v-2.489A2.487 2.487 0 0 1 30 40.026h2.489a2.487 2.487 0 0 1 2.485 2.485V45a2.487 2.487 0 0 1-2.483 2.485zM30 42.505V45h2.495v-2.489L30 42.505zM44.94 47.485h-2.49A2.487 2.487 0 0 1 39.965 45v-2.489a2.487 2.487 0 0 1 2.485-2.485h2.49a2.487 2.487 0 0 1 2.486 2.485V45a2.487 2.487 0 0 1-2.485 2.485zm-2.488-4.98V45h2.495v-2.489l-2.495-.006zM32.49 57.434H30a2.487 2.487 0 0 1-2.485-2.485v-2.48A2.487 2.487 0 0 1 30 49.985h2.489a2.487 2.487 0 0 1 2.485 2.484v2.49a2.487 2.487 0 0 1-2.483 2.474zM30 52.464v2.495h2.495v-2.49L30 52.463zM44.94 57.434h-2.49a2.487 2.487 0 0 1-2.485-2.485v-2.48a2.487 2.487 0 0 1 2.485-2.485h2.49a2.487 2.487 0 0 1 2.486 2.484v2.49a2.487 2.487 0 0 1-2.485 2.476zm-2.488-4.98v2.495h2.495v-2.48l-2.495-.014zM42.45 74.872h-9.96a1.24 1.24 0 0 1-1.239-1.24V62.428c0-.685.555-1.24 1.24-1.24h9.959c.685 0 1.24.555 1.24 1.24V73.63a1.24 1.24 0 0 1-1.24 1.242zm-8.72-2.48h7.48V63.67h-7.478v8.724h-.002zM37.47 21.343a4.98 4.98 0 0 1-4.973-4.973 1.24 1.24 0 1 1 2.479 0 2.495 2.495 0 1 0 2.494-2.495 4.974 4.974 0 1 1 4.974-4.974 1.24 1.24 0 1 1-2.479 0 2.495 2.495 0 1 0-2.495 2.495 4.975 4.975 0 1 1 0 9.95v-.003z"/>
            <path fill="#005268" d="M37.47 26.323a1.24 1.24 0 0 1-1.24-1.24V1.434a1.24 1.24 0 1 1 2.48 0v23.65a1.24 1.24 0 0 1-1.24 1.24zM16.309 69.892H8.84a1.24 1.24 0 0 1-1.24-1.24v-9.959c0-.684.556-1.24 1.24-1.24h7.469c.684 0 1.239.556 1.239 1.24v9.96a1.24 1.24 0 0 1-1.24 1.24zm-6.23-2.479h4.99v-7.48h-4.99v7.48zM16.309 54.953H8.84a1.24 1.24 0 0 1-1.24-1.24v-7.468c0-.684.556-1.24 1.24-1.24h7.469c.684 0 1.239.556 1.239 1.24v7.469a1.24 1.24 0 0 1-1.24 1.24zm-6.23-2.479h4.99v-4.99h-4.99v4.99zM66.1 69.892h-7.468a1.24 1.24 0 0 1-1.24-1.24v-9.959c0-.684.556-1.24 1.24-1.24h7.469c.684 0 1.24.556 1.24 1.24v9.96a1.24 1.24 0 0 1-1.24 1.24zm-6.228-2.479h4.99v-7.48h-4.99v7.48zM66.1 54.953h-7.468a1.24 1.24 0 0 1-1.24-1.24v-7.468c0-.684.556-1.24 1.24-1.24h7.469c.684 0 1.24.556 1.24 1.24v7.469a1.24 1.24 0 0 1-1.24 1.24zm-6.228-2.479h4.99v-4.99h-4.99v4.99z"/>
        </g>
        <path fill="#FFF" d="M89.82 26l41.934 27.232-58.82 90.576L31 116.576z"/>
        <path stroke="#005268" stroke-linecap="round" stroke-width="2.5" d="M90.25 24.25l-62 95"/>
        <g transform="translate(64 65)">
            <path fill="#DFDFE3" fill-rule="nonzero" d="M37.014 62.249h-15.1l1.472-6.92h12.155zM.919 11.504H58.01v43.825H.919z"/>
            <path fill="#1EB8E7" fill-rule="nonzero" stroke="#005268" stroke-width="1.383" d="M1.839 12.427h55.249V47.24H1.839z"/>
            <ellipse cx="29.464" cy="50.808" fill="#005268" fill-rule="nonzero" rx="1.565" ry="1.568"/>
            <path fill="#FFF" fill-rule="nonzero" d="M9.85 12.98h39.135v27.549H9.85z"/>
            <path fill="#005268" fill-rule="nonzero" d="M58.932 56.252v-45.67H0v45.67h22.284l-1.105 5.074h-1.842v1.846h20.258v-1.846h-1.842l-1.105-5.074h22.284zM23.02 61.326l1.105-5.074h10.682l1.105 5.074H23.02zm-21.178-48.9h7.09v29.41h40.976v-29.41h7.183v41.98H1.84v-41.98z"/>
            <path fill="#005268" fill-rule="nonzero" d="M20.992 49.886h1.842v1.845h-1.842zM36.094 49.886h1.842v1.845h-1.842z"/>
            <path fill="#193651" fill-rule="nonzero" d="M16.204 18.332h18.048v1.845H16.204zM37.107 18.332h5.617v1.845h-5.617zM23.202 24.882h19.522v1.846H23.202zM16.204 24.882h4.052v1.845h-4.052z"/>
            <path fill="#A682FF" fill-rule="nonzero" d="M9.214 7.224h40.409v33.959H9.213z"/>
            <path fill="#F9F9F9" fill-rule="nonzero" d="M12.472 10.489h33.892v27.428H12.472zM9.214.694h40.409v6.53H9.213z"/>
            <path fill="#005268" fill-rule="nonzero" d="M8.561.04v41.796h41.713V.04H8.561zm40.41 40.49H9.865V7.877h39.106V40.53zM9.865 6.574V1.347h39.106v5.227H9.865z"/>
            <path fill="#005268" fill-rule="nonzero" d="M12.472 3.306h1.303v1.306h-1.303zM16.318 3.306h1.303v1.306h-1.303zM20.164 3.306h1.303v1.306h-1.303z"/>
            <path stroke="#000" stroke-width="1.037" d="M16.32 18.62h13.996v8.135H16.319zM23.317 13.35H42.84v2.291H23.317zM16.319 13.349h4.052v2.292h-4.052z"/>
            <g fill-rule="nonzero" transform="translate(45.235 33.676)">
                <path fill="#005268" stroke="#005268" stroke-width=".5" d="M28.8 13.537c-.267 0-.534-.026-.797-.08.126-.578.188-1.169.185-1.761a1.843 1.843 0 0 0-1.838-1.733c-.973 0-1.778.76-1.838 1.733 0 1.009.806 1.96 1.957 2.53-.161.373-.364.727-.606 1.054-1.496-2.48-4.403-4.37-7.953-5.095a4.296 4.296 0 0 0 1.266-1.577 4.285 4.285 0 0 0 4.084-3.775A4.29 4.29 0 0 0 20.184.196a4.279 4.279 0 0 0-5.055 2.311 4.26 4.26 0 0 0-3.856 2.856 4.273 4.273 0 0 0 1.24 4.64c-2.055.282-3.987.954-5.613 1.968a4.253 4.253 0 0 0-2.607-.89.613.613 0 0 0-.612.613c.002.85.259 1.681.737 2.384a8.155 8.155 0 0 0-1.704 3.14h-.259a2.45 2.45 0 0 0-1.736.72A2.46 2.46 0 0 0 0 19.676a3.913 3.913 0 0 0 1.849 3.337l4.278 2.67v3.201c0 .34.274.614.612.614h2.45a.613.613 0 0 0 .549-.34l.725-1.452c2.778.749 5.704.749 8.482 0l.725 1.453a.613.613 0 0 0 .548.339h2.457a.613.613 0 0 0 .612-.614v-3.25c2.342-1.73 3.677-4.104 3.677-6.574a7.08 7.08 0 0 0-.497-2.568 6.486 6.486 0 0 0 1.167-1.853c.383.084.774.125 1.167.123a.614.614 0 0 0 0-1.228v.003zm-1.956-.508c-.681-.388-1.101-.923-1.101-1.333a.614.614 0 1 1 1.225 0c0 .448-.043.896-.129 1.336l.005-.003z"/>
                <ellipse cx="18.998" cy="4.329" fill="#FFD166" rx="3.063" ry="3.069"/>
                <path fill="#FFCA28" d="M12.258 6.785a3.06 3.06 0 0 1 2.506-3.006 4.23 4.23 0 0 0-.055.55c.001.305.035.61.101.91a.598.598 0 0 0-.101.318v2.455a.614.614 0 1 0 1.226 0v-.685c.532.54 1.198.93 1.93 1.128a3.043 3.043 0 0 1-3.429 1.273 3.05 3.05 0 0 1-2.178-2.943z"/>
                <path fill="#FFD166" d="M12.258 6.785a3.06 3.06 0 0 1 2.506-3.006 4.23 4.23 0 0 0-.055.55c.001.305.035.61.101.91a.598.598 0 0 0-.101.318v2.455a.614.614 0 1 0 1.226 0v-.685c.532.54 1.198.93 1.93 1.128a3.043 3.043 0 0 1-3.429 1.273 3.05 3.05 0 0 1-2.178-2.943z"/>
                <path fill="#FFA21A" d="M15.935 7.327v.685a.614.614 0 1 1-1.226 0V5.557a.598.598 0 0 1 .101-.319 4.295 4.295 0 0 1-.101-.91 4.23 4.23 0 0 1 .055-.549c-.366.07-.717.206-1.036.4-.157.443-.24.908-.246 1.378a4.329 4.329 0 0 0 2.964 4.075 3.05 3.05 0 0 0 1.417-1.177 4.279 4.279 0 0 1-1.928-1.128z" opacity=".39"/>
                <path fill="#005268" d="M18.998 6.17a.613.613 0 0 0 .612-.613V3.1a.614.614 0 1 0-1.226 0v2.456a.614.614 0 0 0 .614.613z"/>
                <path fill="#FDD1B0" d="M22.33 24.813a.615.615 0 0 0-.264.505v2.953h-1.463l-.786-1.575a.61.61 0 0 0-.732-.311 14.97 14.97 0 0 1-8.748 0 .612.612 0 0 0-.732.311l-.786 1.575H7.357v-2.927c0-.213-.109-.41-.289-.522l-4.567-2.85a2.69 2.69 0 0 1-1.266-2.296 1.228 1.228 0 0 1 1.221-1.223h.745a.613.613 0 0 0 .6-.496c.231-1.209.878-2.39 1.857-3.415.22-.23.228-.59.019-.83a3.072 3.072 0 0 1-.69-1.318c.54.128 1.037.401 1.435.79a.61.61 0 0 0 .77.067c2.054-1.395 4.72-2.164 7.517-2.164 6.08 0 11.028 3.575 11.028 7.98.001 2.177-1.211 4.22-3.407 5.746z"/>
                <path fill="#1EB8E7" d="M22.33 24.813a.615.615 0 0 0-.264.505v2.953h-1.463l-.786-1.575a.61.61 0 0 0-.732-.311 14.97 14.97 0 0 1-8.748 0 .612.612 0 0 0-.732.311l-.786 1.575H7.357v-2.927c0-.213-.109-.41-.289-.522l-4.567-2.85a2.69 2.69 0 0 1-1.266-2.296 1.228 1.228 0 0 1 1.221-1.223h.745a.613.613 0 0 0 .6-.496c.231-1.209.878-2.39 1.857-3.415.22-.23.228-.59.019-.83a3.072 3.072 0 0 1-.69-1.318c.54.128 1.037.401 1.435.79a.61.61 0 0 0 .77.067c2.054-1.395 4.72-2.164 7.517-2.164 6.08 0 11.028 3.575 11.028 7.98.001 2.177-1.211 4.22-3.407 5.746z"/>
                <path fill="#005268" d="M6.131 15.993a1.23 1.23 0 0 0-.867 2.097 1.224 1.224 0 0 0 2.093-.869c0-.678-.549-1.228-1.226-1.228z"/>
                <path fill="#FFF" d="M5.658 14.531c-.115.124-.215.257-.323.385 2.357-1.243 5.41-1.998 8.762-1.998 4.559 0 8.582 1.396 11.02 3.526-1.496-3.114-5.593-5.368-10.408-5.368-2.794 0-5.463.768-7.516 2.165a.61.61 0 0 1-.771-.067 3.057 3.057 0 0 0-1.436-.79c.119.49.356.942.69 1.318.21.24.202.6-.018.83z" opacity=".2"/>
                <path fill="#000" d="M13.79 25.2c-3.312 0-6.354-.626-8.787-1.668l2.067 1.29c.18.111.289.308.288.52v2.928h1.459l.786-1.575a.612.612 0 0 1 .732-.311 14.97 14.97 0 0 0 8.748 0 .61.61 0 0 1 .732.311l.788 1.576h1.46v-2.953c0-.201.098-.39.263-.505a8.714 8.714 0 0 0 2.37-2.39C22.053 24.12 18.152 25.2 13.79 25.2z" opacity=".1"/>
                <path fill="#005268" d="M19.189 12.954c-2.565-.843-6.395-.843-8.96 0a.614.614 0 0 0 .382 1.167c2.322-.764 5.87-.764 8.196 0a.613.613 0 0 0 .382-1.167z"/>
            </g>
            <path fill="#FFF" d="M38.055 27.3a3.953 3.953 0 0 0-3.949 3.958 3.953 3.953 0 0 0 3.949 3.958 3.953 3.953 0 0 0 3.948-3.958c0-1.05-.416-2.057-1.156-2.799a3.944 3.944 0 0 0-2.792-1.16z"/>
            <path fill="#007896" fill-rule="nonzero" d="M37.948 26.658a4.488 4.488 0 0 0-4.482 4.493 4.488 4.488 0 0 0 4.482 4.493 4.488 4.488 0 0 0 4.482-4.493 4.498 4.498 0 0 0-1.312-3.177 4.477 4.477 0 0 0-3.17-1.316zm1.55 5.897l-1.155 1.171a.56.56 0 0 1-.392.166.56.56 0 0 1-.392-.166l-1.149-1.171a.562.562 0 0 1 0-.8.305.305 0 0 1 .437 0l.583.592a.733.733 0 0 0 1.048 0l.59-.592a.305.305 0 0 1 .438 0 .562.562 0 0 1-.003.8h-.006zm1.212-1.873a.3.3 0 0 1-.213.09.28.28 0 0 1-.204-.084l-.56-.562a.697.697 0 0 0-.499-.208.72.72 0 0 0-.515.216l-.56.576a.3.3 0 0 1-.28.084.28.28 0 0 1-.158-.081l-.56-.562a.697.697 0 0 0-.499-.208.72.72 0 0 0-.515.217l-.56.575a.3.3 0 0 1-.418 0 .563.563 0 0 1 0-.766l1.12-1.14c.102-.104.24-.163.385-.163.138 0 .27.055.367.154l.907.927.925-.938c.1-.104.239-.162.383-.163a.512.512 0 0 1 .373.155l1.1 1.123a.563.563 0 0 1-.013.76l-.006-.002z"/>
        </g>
    </g>
</svg>
