<svg xmlns="http://www.w3.org/2000/svg" width="125" height="106" viewBox="0 0 125 106">
    <g fill="none" fill-rule="evenodd">
        <g fill-rule="nonzero">
            <path fill="#077493" d="M2.125 2.086h109.162v97.921H2.125z"/>
            <path fill="#FFD166" d="M119.084 64.755h3.898v-7.833h-3.898v-7.834H83.996v7.834h3.899v7.833h-3.899v3.917c-6.74-.004-12.888 3.873-15.814 9.974a17.693 17.693 0 0 0 2.087 18.642 17.499 17.499 0 0 0 17.626 6.193v.443h35.087V96.09h-3.898v-7.833h3.898v-7.834h-3.898V64.755z"/>
            <path fill="#1EB8E7" d="M64.898 90.215H11.87v-11.75h5.848V58.88h-5.848V43.213h5.848V23.628h-5.848v-11.75h89.669V47.13h-7.797V31.462h3.898v-3.917h-7.797V47.13H85.67c-1.876-14.395-14.132-25.553-28.962-25.553-11.598-.028-22.117 6.834-26.81 17.49-4.693 10.657-2.672 23.093 5.15 31.697 7.821 8.604 19.966 11.75 30.953 8.019a19.63 19.63 0 0 0-1.103 11.432z"/>
            <path fill="#7D8694" d="M70.227 72.45c-11.482 7.326-26.668 4.293-34.488-6.887C27.92 54.382 30.224 39 40.975 30.63c10.751-8.37 26.152-6.775 34.977 3.623 8.825 10.399 7.958 25.929-1.968 35.271"/>
            <path fill="#005268" d="M15.77 15.795h3.899v3.917H15.77zM93.743 15.795h3.899v3.917h-3.899zM15.77 82.381h3.899v3.917H15.77zM54.756 66.714h3.899v5.875h-3.899zM54.756 29.504h3.899v5.875h-3.899zM35.263 49.088h5.848v3.917h-5.848zM72.3 49.088h5.848v3.917H72.3zM66.337 63.498l2.754-2.756 4.156 4.153-2.754 2.756zM40.15 37.182l2.755-2.756 4.156 4.153-2.754 2.756zM40.161 64.888l4.136-4.134 2.767 2.768-4.135 4.135zM66.347 38.574l4.135-4.135 2.768 2.769-4.136 4.134zM68.243 49.421l3.602-3.75-5.147-.644c-3.082-5.18-9.569-7.173-15.007-4.609-5.438 2.564-8.059 8.85-6.063 14.542 1.995 5.692 7.959 8.94 13.795 7.514 5.837-1.427 9.65-7.063 8.82-13.04v-.013zM56.708 60.143c-5 0-9.054-4.072-9.054-9.097 0-5.024 4.053-9.096 9.054-9.096 5 0 9.055 4.072 9.055 9.096a9.119 9.119 0 0 1-2.653 6.434 9.033 9.033 0 0 1-6.404 2.663h.002z"/>
            <path fill="#FFF" d="M83.996 74.548c-6.46 0-11.696 5.26-11.696 11.75s5.237 11.75 11.696 11.75c6.46 0 11.696-5.26 11.696-11.75s-5.236-11.75-11.696-11.75zm0 22.078c-5.678 0-10.28-4.624-10.28-10.328s4.602-10.328 10.28-10.328c5.678 0 10.28 4.624 10.28 10.328-.005 5.702-4.605 10.323-10.28 10.328z"/>
            <path fill="#005268" d="M121.033 70.63v-3.916h3.899v-11.75h-3.899V47.13h-7.797V.127H.176v101.839h17.543v3.916h17.544v-3.916h37.088a19.253 19.253 0 0 0 13.594 3.816v.1h38.987v-11.75h-3.899v-3.917h3.899v-11.75h-3.899V70.63zm-3.898-19.584v3.917h-31.19v-3.917h31.19zm-14.04 39.17h14.04v3.916h-15.283a19.34 19.34 0 0 0 1.245-3.917h-.002zm-3.543-15.668h17.58v3.916h-15.28a19.588 19.588 0 0 0-2.298-3.916h-.002zm-1.913-3.917h-2a19.303 19.303 0 0 0-9.696-3.817v-.1h31.19v3.917H97.638zM70.224 72.45c-11.484 7.322-26.668 4.284-34.485-6.9-7.816-11.182-5.506-26.563 5.248-34.93 10.753-8.367 26.153-6.767 34.975 3.634 8.822 10.4 7.95 25.93-1.978 35.27a19.588 19.588 0 0 0-3.757 2.926h-.003zm-5.329 17.765H11.871v-11.75h5.848V58.88h-5.848V43.213h5.848V23.628h-5.848v-11.75h89.669V47.13h-7.797V31.462h3.898v-3.917h-7.797V47.13H85.67c-1.876-14.395-14.132-25.553-28.962-25.553-11.598-.028-22.117 6.834-26.81 17.49-4.693 10.657-2.672 23.093 5.15 31.697 7.821 8.604 19.966 11.75 30.953 8.019a19.63 19.63 0 0 0-1.103 11.432h-.003zM13.818 62.797v11.75H9.92v-11.75h3.898zm0-35.252v11.75H9.92v-11.75h3.898zM85.943 58.88v3.917h-2.5c.555-1.27 1.02-2.58 1.391-3.917h1.109zm-3.899 6.669v1.265c-.285.03-.56.084-.843.125.298-.455.578-.92.846-1.39h-.003zm-64.327 32.5H4.072V4.044h105.263V47.13h-3.899V7.96H7.97v15.667H6.021v19.585h1.95V58.88H6.02v19.584h1.95v15.668h58.172a19.588 19.588 0 0 0 2.295 3.917H17.717zm50.682-11.75c0-4.025 1.55-7.893 4.323-10.797a29.483 29.483 0 0 0 3.601-2.827 15.446 15.446 0 0 1 17.417 1.412v.46h.534c5.406 4.762 6.871 12.619 3.548 19.024-3.323 6.404-10.573 9.697-17.554 7.972-6.98-1.726-11.883-8.022-11.869-15.245zm52.632 15.667H95.64a19.651 19.651 0 0 0 3.898-3.917h21.482l.01 3.917zm0-15.668h-17.544a19.64 19.64 0 0 0-.395-3.917h17.939v3.917zM89.84 62.797V58.88h31.19v3.917H89.84z"/>
            <path fill="#1EB8E7" d="M9.922 27.545h3.899v11.751H9.922zM9.922 62.797h3.899v11.751H9.922z"/>
        </g>
        <path fill="#FFF" d="M56.87 43.173c-4.446 0-8.05 3.62-8.05 8.087s3.604 8.087 8.05 8.087c4.445 0 8.05-3.62 8.05-8.087a8.106 8.106 0 0 0-2.358-5.718 8.03 8.03 0 0 0-5.692-2.37z"/>
        <path fill="#007896" fill-rule="nonzero" d="M56.652 41.861c-5.046 0-9.137 4.11-9.137 9.18 0 5.07 4.09 9.18 9.137 9.18 5.047 0 9.137-4.11 9.137-9.18 0-2.434-.962-4.77-2.676-6.49a9.116 9.116 0 0 0-6.461-2.69zm3.158 12.05l-2.353 2.392a1.14 1.14 0 0 1-.8.338 1.14 1.14 0 0 1-.799-.338l-2.341-2.393a1.15 1.15 0 0 1 0-1.635.621.621 0 0 1 .89 0l1.189 1.21a1.493 1.493 0 0 0 2.135 0l1.205-1.21a.621.621 0 0 1 .891 0 1.15 1.15 0 0 1-.005 1.635h-.012zm2.473-3.828a.61.61 0 0 1-.434.184.57.57 0 0 1-.417-.172l-1.142-1.148a1.419 1.419 0 0 0-1.017-.424c-.395-.001-.774.158-1.05.442L57.08 50.14a.61.61 0 0 1-.57.172.57.57 0 0 1-.32-.166l-1.143-1.148a1.419 1.419 0 0 0-1.016-.425c-.395 0-.774.159-1.051.442l-1.142 1.176a.609.609 0 0 1-.851 0 1.151 1.151 0 0 1 0-1.566l2.284-2.33c.206-.212.488-.332.783-.332.281 0 .55.113.748.315l1.85 1.894 1.885-1.917c.205-.212.487-.332.782-.332.285-.004.56.11.76.315l2.244 2.295a1.151 1.151 0 0 1-.029 1.555l-.011-.006z"/>
    </g>
</svg>
